<svg xmlns="http://www.w3.org/2000/svg" viewBox="0 0 96 96"><defs><style>.cls-1{fill:#3c7ab2;}.cls-2{fill:#ff3d38;}.cls-3{fill:none;}</style></defs><title>club-digest</title><g id="Your_Icons" data-name="Your Icons"><path class="cls-1" d="M64.59,57.24a2,2,0,0,1-.49-.06L49.36,53.45A2,2,0,0,1,49,49.71l18.15-8.84a2,2,0,1,1,1.75,3.6L55.64,50.91l9.44,2.39a2,2,0,0,1-.49,3.94Z"/><path class="cls-1" d="M65.75,47.58a1,1,0,0,1-1-.83l-.46-2.6a1,1,0,0,1,2-.35l.46,2.6a1,1,0,0,1-.81,1.16Z"/><path class="cls-1" d="M63.14,48a1,1,0,0,1-1-.83l-.33-1.85a1,1,0,0,1,2-.35l.33,1.85A1,1,0,0,1,63.32,48Z"/><path class="cls-2" d="M47.51,67.92A14.51,14.51,0,0,1,40,65.7a16.71,16.71,0,0,1-7.81-11.08,15.75,15.75,0,0,1,.1-6.07c-.32-1.11-1.33-4.3-2.25-7.18a2,2,0,0,1,1.8-2.61c3.12-.16,6.6-.36,7.72-.46a15.88,15.88,0,0,1,17.34.55,2,2,0,0,1-2.29,3.28,11.89,11.89,0,0,0-13-.42c-.51.51-1.54.63-7,.91a56.47,56.47,0,0,1,1.7,5.64,2,2,0,0,1,0,.74,11.77,11.77,0,0,0-.16,4.92,12.65,12.65,0,0,0,5.95,8.36,9.41,9.41,0,0,0,7.56,1.32,16.93,16.93,0,0,0,6.42-3.67,2,2,0,1,1,2.8,2.85,21.17,21.17,0,0,1-8,4.64A11.28,11.28,0,0,1,47.51,67.92Z"/><path class="cls-2" d="M73,80H23A10,10,0,0,1,13,70V33A10,10,0,0,1,23,23H73A10,10,0,0,1,83,33V70A10,10,0,0,1,73,80ZM23,27a6,6,0,0,0-6,6V70a6,6,0,0,0,6,6H73a6,6,0,0,0,6-6V33a6,6,0,0,0-6-6Z"/><polyline class="cls-3" points="56.92 16 47.92 25 38.58 15.67"/><path class="cls-2" d="M47.92,27a2,2,0,0,1-1.41-.59l-9.33-9.33A2,2,0,1,1,40,14.25l7.92,7.92,7.59-7.59a2,2,0,0,1,2.83,2.83l-9,9A2,2,0,0,1,47.92,27Z"/><circle class="cls-1" cx="57.25" cy="15.67" r="3"/><circle class="cls-1" cx="38.58" cy="15.67" r="3"/></g></svg>