<svg xmlns="http://www.w3.org/2000/svg" viewBox="0 0 96 96"><defs><style>.cls-1{fill:#3c7ab2;}.cls-2{fill:#ff3d38;}</style></defs><title>club-connect</title><g id="Your_Icons" data-name="Your Icons"><path class="cls-1" d="M40.82,66a2,2,0,0,1-1.41-3.42L60.24,41.86a2,2,0,1,1,2.82,2.83l-17,16.9,16.62-1.37a2,2,0,0,1,.33,4L41,66Z"/><path class="cls-1" d="M60.4,50.74a1,1,0,0,1-.88-.52l-1.86-3.36a1,1,0,0,1,1.75-1l1.86,3.36a1,1,0,0,1-.87,1.48Z"/><path class="cls-1" d="M57,52.61a1,1,0,0,1-.88-.52l-1.33-2.4a1,1,0,1,1,1.75-1l1.33,2.4A1,1,0,0,1,57,52.61Z"/><path class="cls-2" d="M75.38,47a2,2,0,0,1-1.8-1.12l-4.12-8.43H16.88a2,2,0,0,1-2-2V12a2,2,0,0,1,2-2h68a2,2,0,0,1,2,2V35.45a2,2,0,0,1-2,2H80.47l-3.22,8.27A2,2,0,0,1,75.46,47ZM18.88,33.45H70.71a2,2,0,0,1,1.8,1.12L75.17,40l2.06-5.29a2,2,0,0,1,1.86-1.27h3.78V14h-64Z"/><circle class="cls-1" cx="59.38" cy="24.5" r="2.5"/><circle class="cls-1" cx="50.88" cy="24.5" r="2.5"/><circle class="cls-1" cx="42.38" cy="24.5" r="2.5"/><path class="cls-2" d="M39,87.87a22.22,22.22,0,0,1-4.77-.53A23.41,23.41,0,0,1,18.8,76.22a22.05,22.05,0,0,1-2.65-8.31c-.85-1.22-3.9-5.36-6.64-9a2,2,0,0,1,.86-3.05C14.83,54,19.74,52,21,51.43a22.22,22.22,0,0,1,23.34-7.29A2,2,0,1,1,43.26,48a18.22,18.22,0,0,0-19.14,6c-.39.75-1.74,1.34-9.84,4.6,5.3,7.14,5.54,7.62,5.62,7.78a2,2,0,0,1,.2.71,18.06,18.06,0,0,0,2.21,7.23,19.36,19.36,0,0,0,12.75,9.15c4.48,1,8.77.29,11.77-1.91a25.63,25.63,0,0,0,7.38-8.42,2,2,0,0,1,3.58,1.79,29.87,29.87,0,0,1-8.6,9.86A17.23,17.23,0,0,1,39,87.87Z"/></g></svg>