<svg xmlns="http://www.w3.org/2000/svg" viewBox="0 0 96 96"><defs><style>.cls-1{fill:#ff3d38;}.cls-2{fill:#3c7ab2;}</style></defs><title>club-wow</title><g id="Your_Icons" data-name="Your Icons"><path class="cls-1" d="M35.32,43.48a2,2,0,0,1-1.18-.38l-8-5.82-8,5.82A2,2,0,0,1,15,40.86l3.06-9.42-8-5.82A2,2,0,0,1,11.26,22h9.91l3.06-9.42a2,2,0,0,1,3.8,0L31.09,22H41a2,2,0,0,1,1.18,3.62l-8,5.82,3.06,9.42a2,2,0,0,1-1.9,2.62ZM17.42,26l4.21,3.06a2,2,0,0,1,.73,2.24l-1.61,4.95L25,33.18a2,2,0,0,1,2.35,0l4.21,3.06-1.61-4.95a2,2,0,0,1,.73-2.24L34.84,26h-5.2a2,2,0,0,1-1.9-1.38l-1.61-4.95-1.61,4.95A2,2,0,0,1,22.62,26Z"/><path class="cls-2" d="M47.09,24.45a1.5,1.5,0,0,1-1.43-2l2-6.11-5.2-3.78a1.5,1.5,0,0,1,.88-2.71h6.42l2-6.11a1.5,1.5,0,0,1,2.85,0l2,6.11H63a1.5,1.5,0,0,1,.88,2.71l-5.2,3.78,2,6.11a1.5,1.5,0,0,1-2.31,1.68l-5.2-3.78L48,24.17A1.5,1.5,0,0,1,47.09,24.45ZM53.17,17a1.5,1.5,0,0,1,.88.29L56.39,19l-.9-2.75A1.5,1.5,0,0,1,56,14.59l2.34-1.7h-2.9a1.5,1.5,0,0,1-1.43-1l-.9-2.76-.89,2.76a1.5,1.5,0,0,1-1.43,1h-2.9l2.34,1.7a1.5,1.5,0,0,1,.54,1.68L49.94,19l2.34-1.7A1.5,1.5,0,0,1,53.17,17Z"/><path class="cls-1" d="M76,31H71.51l-1.57,1.14L70.88,35H74V82H22V44l-2.12,1.54a5,5,0,0,1-1.88.83V84a2,2,0,0,0,2,2H76a2,2,0,0,0,2-2V33A2,2,0,0,0,76,31Z"/><polygon class="cls-1" points="58.88 35 59.8 32.14 58.24 31 39.87 31 37.69 32.59 38.47 35 58.88 35"/><path class="cls-1" d="M69.28,37.55a1,1,0,0,1-.59-.19l-3.81-2.77-3.81,2.77a1,1,0,0,1-1.54-1.12L61,31.76,57.17,29a1,1,0,0,1,.59-1.81h4.72l1.46-4.48a1,1,0,0,1,1.9,0l1.46,4.48H72A1,1,0,0,1,72.59,29l-3.81,2.77,1.46,4.48a1,1,0,0,1-1,1.31Zm-4.4-5.2a1,1,0,0,1,.59.19l1.91,1.39-.73-2.25A1,1,0,0,1,67,30.57l1.91-1.39H66.56a1,1,0,0,1-1-.69l-.73-2.25-.73,2.25a1,1,0,0,1-1,.69H60.83l1.91,1.39a1,1,0,0,1,.36,1.12l-.73,2.25,1.91-1.39A1,1,0,0,1,64.88,32.35Z"/><rect class="cls-2" x="22" y="56" width="14" height="4"/><rect class="cls-2" x="60" y="56" width="14" height="4"/><rect class="cls-2" x="46" y="35" width="4" height="11"/><rect class="cls-2" x="46" y="70" width="4" height="12"/><path class="cls-1" d="M58,46H38a2,2,0,0,0-2,2V68a2,2,0,0,0,2,2H58a2,2,0,0,0,2-2V48A2,2,0,0,0,58,46ZM49.37,65.88a2.2,2.2,0,0,1-2.78,0,1.71,1.71,0,0,1,0-2.53,2.2,2.2,0,0,1,2.78,0,1.71,1.71,0,0,1,0,2.53Zm3.3-9.3A5.28,5.28,0,0,1,51.56,58l-1.2,1.11a2.83,2.83,0,0,0-.71,1,4,4,0,0,0-.22,1.31h-3A6.79,6.79,0,0,1,46.8,59a3.75,3.75,0,0,1,1.11-1.53,7.44,7.44,0,0,0,1.17-1.18,1.93,1.93,0,0,0,.4-1.18q0-1.57-1.35-1.57a1.26,1.26,0,0,0-1,.46,2,2,0,0,0-.41,1.24H43.2A4.2,4.2,0,0,1,44.51,52a5.23,5.23,0,0,1,3.62-1.16,5.44,5.44,0,0,1,3.6,1.07A3.77,3.77,0,0,1,53,55,3.55,3.55,0,0,1,52.66,56.57Z"/></g></svg>