<svg width="162" height="188" viewBox="0 0 162 188" fill="none" xmlns="http://www.w3.org/2000/svg">
<g filter="url(#filter0_d)">
<mask id="mask0" mask-type="alpha" maskUnits="userSpaceOnUse" x="34" y="5" width="103" height="103">
<path d="M74.851 6.82731C64.0467 3.53994 52.6231 9.63362 49.3358 20.4379L35.1083 67.1981C31.8209 78.0024 37.9146 89.426 48.7189 92.7133L95.4791 106.941C106.283 110.228 117.707 104.135 120.994 93.3302L135.222 46.57C138.509 35.7657 132.415 24.3422 121.611 21.0548L74.851 6.82731Z" fill="#FF3D38"/>
<path d="M49.5505 20.5033C52.8018 9.81753 64.1 3.79074 74.7857 7.04203L121.546 21.2695C132.232 24.5208 138.258 35.819 135.007 46.5047L120.78 93.2649C117.528 103.951 106.23 109.977 95.5444 106.726L48.7842 92.4986C38.0985 89.2473 32.0717 77.9491 35.323 67.2634L49.5505 20.5033Z" stroke="black" stroke-opacity="0.06" stroke-width="0.448868"/>
</mask>
<g mask="url(#mask0)">
<rect x="55.2881" y="0.875" width="89.7736" height="89.7736" transform="rotate(16.9232 55.2881 0.875)" fill="#FF3D38"/>
</g>
<path d="M110.214 56.6894L110.311 56.3686C114.099 43.9211 106.917 30.6597 94.3113 26.8243C81.6408 22.9691 68.3549 30.0029 64.5676 42.4504L64.47 42.7712L60.4288 56.0529L75.3735 60.6L57.3443 66.1905L53.147 79.9855L54.3168 79.6404L80.3921 71.8712L80.652 71.9503L98.1112 92.9655L98.8906 93.9036L101.038 86.8458L103.088 80.1087L91.0329 65.3646L106.172 69.9711L109.394 59.3842L110.214 56.6894Z" fill="white"/>
</g>
<g filter="url(#filter1_d)">
<path d="M80.9998 80.1018C55.7331 80.1018 28.0391 76.9628 16.1273 75.4453C12.9573 75.0414 10.1367 77.507 10.1367 80.7026V138.996C10.1367 143.154 12.5944 146.92 16.4011 148.594L73.9814 173.914C78.4537 175.881 83.5459 175.881 88.0182 173.914L145.599 148.594C149.405 146.92 151.863 143.154 151.863 138.996V80.7026C151.863 77.507 149.042 75.0414 145.872 75.4453C133.96 76.9628 106.267 80.1018 80.9998 80.1018Z" fill="#333333" stroke="#999999" stroke-width="1.1281" stroke-linejoin="round"/>
<path d="M143.114 83.3906C93.9566 90.1219 66.7492 90.2211 18.8853 83.3906V132.882C18.8853 137.122 21.4391 140.945 25.3563 142.568L74.3251 162.861C78.5987 164.632 83.4009 164.632 87.6745 162.861L136.643 142.568C140.56 140.945 143.114 137.122 143.114 132.882V83.3906Z" stroke="#999999" stroke-width="0.846076" stroke-linecap="round" stroke-dasharray="6.97 5.23"/>
<circle cx="20.8822" cy="85.2958" r="4.18447" fill="#999999"/>
<circle cx="20.8882" cy="85.3012" r="2.84327" stroke="#4D4D4D" stroke-width="0.437426"/>
<circle cx="140.461" cy="85.2958" r="4.18447" fill="#999999"/>
<circle cx="140.467" cy="85.3012" r="2.84327" stroke="#4D4D4D" stroke-width="0.437426"/>
</g>
<defs>
<filter id="filter0_d" x="27.6208" y="0.989127" width="115.088" height="115.088" filterUnits="userSpaceOnUse" color-interpolation-filters="sRGB">
<feFlood flood-opacity="0" result="BackgroundImageFix"/>
<feColorMatrix in="SourceAlpha" type="matrix" values="0 0 0 0 0 0 0 0 0 0 0 0 0 0 0 0 0 0 127 0"/>
<feOffset dy="1.64913"/>
<feGaussianBlur stdDeviation="3.29826"/>
<feColorMatrix type="matrix" values="0 0 0 0 0 0 0 0 0 0 0 0 0 0 0 0 0 0 0.35 0"/>
<feBlend mode="normal" in2="BackgroundImageFix" result="effect1_dropShadow"/>
<feBlend mode="normal" in="SourceGraphic" in2="effect1_dropShadow" result="shape"/>
</filter>
<filter id="filter1_d" x="0.547947" y="68.0693" width="160.904" height="119.165" filterUnits="userSpaceOnUse" color-interpolation-filters="sRGB">
<feFlood flood-opacity="0" result="BackgroundImageFix"/>
<feColorMatrix in="SourceAlpha" type="matrix" values="0 0 0 0 0 0 0 0 0 0 0 0 0 0 0 0 0 0 127 0"/>
<feOffset dy="2.2562"/>
<feGaussianBlur stdDeviation="4.5124"/>
<feColorMatrix type="matrix" values="0 0 0 0 0 0 0 0 0 0 0 0 0 0 0 0 0 0 0.2 0"/>
<feBlend mode="normal" in2="BackgroundImageFix" result="effect1_dropShadow"/>
<feBlend mode="normal" in="SourceGraphic" in2="effect1_dropShadow" result="shape"/>
</filter>
</defs>
</svg>
