<?xml version="1.0" encoding="utf-8"?>
<!-- Generator: Adobe Illustrator 21.0.2, SVG Export Plug-In . SVG Version: 6.00 Build 0)  -->
<svg version="1.1" id="Calque_1" xmlns="http://www.w3.org/2000/svg" xmlns:xlink="http://www.w3.org/1999/xlink" x="0px" y="0px"
	 viewBox="0 0 250 250" style="enable-background:new 0 0 250 250;" xml:space="preserve">
<style type="text/css">
	.st0{fill:#FF3D38;}
	.st1{fill:#FFFFFF;}
</style>
<title>news-article-ad-illustration</title>
<rect x="120.7" y="32.5" class="st0" width="124.3" height="181.9"/>
<path class="st1" d="M205.1,86.2c-1.4-0.9-3.3-0.4-4.1,1c-0.7,1.1-0.6,2.6,0.3,3.6c13.5,11.3,18.4,24.8,13.7,38
	c-5.2,14.5-19.4,23.5-29.7,23.6h-0.3c-10.1,0-11.9-5.8-14.5-14.5c-0.2-0.6-0.4-1.2-0.5-1.8c1.2-0.8,2.3-1.7,3.2-2.8
	c4.2-4.8,5.8-12.1,3.8-17.5c-1.2-3.7-4.5-6.4-8.4-6.9c-2.6-0.5-5.4-0.2-7.9,0.7c2.5-5.7,5-11.6,7.5-17.7
	c6.9-16.6,10.5-36.2,3.3-42.5c-2.1-1.9-6-3.3-12.2,0.3c-9.5,5.5-10.3,24-11.2,47.4c-0.4,9.4-0.8,19.5-1.8,29.2
	c-0.6,1.1-1.2,2.3-1.8,3.3c-9.6,17.1-14.9,17.7-16.7,17.2c-0.9-0.3-1.6-1-2-1.9c-1.6-3.1-1.8-8.4-1.1-14.3
	c2.3-8.2,4.1-16.5,5.3-24.9c0.1-1.7-1.2-3.1-2.8-3.2c-1.3-0.1-2.5,0.7-3,1.9c-2.5,8-4.2,16.3-5.3,24.6c-2.7,9-6,16.3-9.1,17.3
	c-2.1,0.6-3.2-0.1-3.8-0.7c-2.7-2.9-3.6-11.7,1-24.2c3.1-8.4,6.2-10.5,7.8-11c1-0.3,2.2-0.2,3.1,0.4c1.4,0.8,3.3,0.3,4.1-1.2
	c0.7-1.2,0.4-2.6-0.5-3.6c-2.4-1.7-5.4-2.2-8.2-1.3c-4.8,1.4-8.8,6.4-11.8,14.7c-3.7,10.1-4.5,19.2-2.6,25.3c-1.4-0.8-3.2-0.3-4,1.1
	c-1.1,1.8-5,7.1-8.5,7.7c-1,0.2-2-0.1-2.8-0.8c-5.3-5.8,1.8-22.2,8.7-33.4c0.8-1.2,1.6-2.5,2.4-3.8c0.7-1.5,0-3.3-1.6-3.9
	c-1.2-0.5-2.6-0.2-3.4,0.8c-0.4,0.6-1.2,1.8-2.3,3.6c-6.3,9.1-14,14.2-19.7,15.6c0.8-2.8,1-5.4,0.1-7.3c-1.5-3.3-4.2-5.2-7.3-5.2
	l0,0c-3.1,0.1-6,2-7.2,4.8c-1.4,3.2-0.7,6.9,2,10c1.1,1.2,2.4,2.2,3.9,2.9c-1.9,3.7-4.1,7.3-6.5,10.7c-0.5,0.8-0.7,1.8-0.4,2.7
	c-5.9-1.9-12-3.4-18.1-4.5l-1.9-0.3c18.3-27.3,50.6-62,51-62.4c1-1.4,0.6-3.2-0.7-4.2c-1.1-0.8-2.6-0.7-3.6,0.1
	c-1.3,1.4-25.5,27.3-43.8,52.2c3.4-18,5.6-37.2,5.6-37.5c0.4-1.6-0.6-3.2-2.2-3.6c-1.6-0.4-3.2,0.6-3.6,2.2
	c-0.1,0.3-0.1,0.5-0.1,0.8c0,0.3-3.2,28.7-7.9,48.3c-0.2,0.8-0.4,1.6-0.6,2.4l-0.7,1c-13.4-0.7-18,3.8-19.6,6.9
	c-2.3,4.7-0.3,10.4,4.4,12.7c3.2,1.7,7.5,1.5,11-1.9c-4.5,16.5-9.1,32.8-9.2,33c-0.7,1.5,0,3.3,1.5,4c1.5,0.7,3.3,0,4-1.5
	c0.1-0.3,0.2-0.5,0.2-0.8c0.1-0.3,7.5-26,12.6-45.8c0.9,0.1,1.7,0.3,2.7,0.4c18.5,3.1,44.7,13.3,77.8,30.3c1.4,1,3.2,0.6,4.2-0.7
	c1-1.4,0.6-3.2-0.7-4.2c-0.2-0.2-0.5-0.3-0.8-0.4c-22-11.3-41.1-19.6-56.9-24.9c0.3-0.2,0.5-0.4,0.7-0.7c2.9-4.1,5.5-8.5,7.7-13
	c0.3,0,0.7,0,1-0.1c4.6-0.6,8.9-2.4,12.7-5.1c-3.4,8.9-4.9,18.6,0.6,24.2l0.2,0.2c1.7,1.5,3.9,2.3,6.1,2.3c0.5,0,1.1,0,1.6-0.1
	c6.8-1.1,12-9.5,12.6-10.5c0.2-0.3,0.3-0.6,0.3-0.9c0.4,0.6,0.8,1.2,1.3,1.8c2.5,2.7,6.4,3.6,9.8,2.3c3-0.9,5.6-3.9,7.8-7.8
	c0.3,1.2,0.7,2.4,1.3,3.5c1.1,2.3,3.2,4,5.6,4.8c5.7,1.7,11.4-2.2,17-9.8c-0.4,2.3-0.5,3.8-0.5,4.1c0,1.7,1.3,3,3,3
	c1.3,0,2.4-0.8,2.9-2c1.4-5.2,2.5-10.5,3.2-15.8c1.9-6.1,4.6-12.1,8.6-15.1c2.1-1.7,4.9-2.4,7.6-1.9c1.7,0.2,3.2,1.4,3.7,3.1
	c1.2,3.3,0,8.4-2.7,11.5c-0.3,0.3-0.5,0.6-0.8,0.8c-2.9-7-7.1-7-8.9-6.7c-3.4,0.8-5.8,3.8-5.8,7.3c0,2.8,1.5,6.1,6.2,7.1
	c1.6,0.4,3.3,0.5,5,0.3l0.4,1.4c2.6,8.8,5.6,18.7,20.2,18.7h0.3c14.1-0.1,29.9-12.5,35.3-27.6C223.9,121.6,226.2,103.7,205.1,86.2z
	 M19.4,155c-1.9,3.6-4.2,5-6.3,3.9c-1.6-0.8-2.7-3-1.8-4.7c1-1.9,4.3-3.6,10.7-3.7C21,152,20.2,153.5,19.4,155z M61.5,131.2
	c-0.7-0.3-1.4-0.8-1.9-1.4c-1.1-1.3-1.5-2.6-1-3.6c0.3-0.7,1-1.3,1.8-1.3l0,0c0.9,0,1.5,0.9,1.9,1.7S62.3,129,61.5,131.2L61.5,131.2
	z M153.5,111.4c0.3-4.8,0.5-9.6,0.6-14.3c0.8-19.9,1.5-38.6,8.2-42.5c1.2-0.8,2.5-1.2,3.9-1.4c0.5,0,1,0.1,1.4,0.5
	c3,2.6,3.5,15.8-4.8,35.8C160.2,96,157,103.7,153.5,111.4L153.5,111.4z M160.8,132.1c-1.5-0.3-1.5-1-1.5-1.2c0-0.6,0.4-1.2,0.9-1.5
	l0,0c0.2,0,1.1,0.5,2.2,3C161.9,132.3,161.3,132.2,160.8,132.1L160.8,132.1z"/>
<g>
	<path class="st1" d="M156.6,193.4c-0.1,1.9-0.6,3.5-1.5,5c-0.9,1.4-2.2,2.6-3.9,3.3c-1.7,0.8-3.6,1.2-5.7,1.2
		c-3.6,0-6.3-1.2-8.4-3.5c-2-2.3-3.1-5.6-3.1-9.8v-1.3c0-2.6,0.5-5,1.4-6.9c0.9-2,2.2-3.5,4-4.6c1.7-1.1,3.7-1.6,6-1.6
		c3.3,0,5.9,0.9,7.9,2.6c2,1.7,3.1,4.1,3.4,7.1h-6.5c0-1.6-0.5-2.8-1.2-3.5c-0.8-0.7-2-1.1-3.6-1.1c-1.6,0-2.8,0.6-3.6,1.8
		c-0.8,1.2-1.2,3.1-1.2,5.8v1.9c0,2.9,0.4,4.9,1.1,6.2c0.7,1.2,2,1.9,3.7,1.9c1.5,0,2.6-0.4,3.4-1.1c0.8-0.7,1.2-1.8,1.3-3.4H156.6z
		"/>
	<path class="st1" d="M182.5,189.5c0,2.6-0.5,5-1.5,7c-1,2-2.4,3.6-4.2,4.7c-1.8,1.1-3.8,1.6-6.2,1.6s-4.3-0.5-6.1-1.6
		c-1.8-1.1-3.2-2.6-4.2-4.5c-1-2-1.5-4.2-1.6-6.8v-1.5c0-2.6,0.5-5,1.5-7c1-2,2.4-3.6,4.2-4.7c1.8-1.1,3.9-1.7,6.2-1.7
		c2.3,0,4.3,0.5,6.1,1.6c1.8,1.1,3.2,2.6,4.2,4.6c1,2,1.5,4.3,1.5,6.9V189.5z M175.9,188.4c0-2.7-0.4-4.7-1.3-6.1
		c-0.9-1.4-2.2-2.1-3.8-2.1c-3.3,0-5,2.4-5.2,7.3l0,2c0,2.6,0.4,4.7,1.3,6.1c0.9,1.4,2.2,2.1,3.9,2.1c1.6,0,2.9-0.7,3.8-2.1
		c0.9-1.4,1.3-3.4,1.4-6V188.4z"/>
	<path class="st1" d="M208.8,189.5c0,2.6-0.5,5-1.5,7c-1,2-2.4,3.6-4.2,4.7c-1.8,1.1-3.8,1.6-6.2,1.6s-4.3-0.5-6.1-1.6
		c-1.8-1.1-3.2-2.6-4.2-4.5c-1-2-1.5-4.2-1.6-6.8v-1.5c0-2.6,0.5-5,1.5-7c1-2,2.4-3.6,4.2-4.7c1.8-1.1,3.9-1.7,6.2-1.7
		c2.3,0,4.3,0.5,6.1,1.6c1.8,1.1,3.2,2.6,4.2,4.6c1,2,1.5,4.3,1.5,6.9V189.5z M202.1,188.4c0-2.7-0.4-4.7-1.3-6.1
		c-0.9-1.4-2.2-2.1-3.8-2.1c-3.3,0-5,2.4-5.2,7.3l0,2c0,2.6,0.4,4.7,1.3,6.1c0.9,1.4,2.2,2.1,3.9,2.1c1.6,0,2.9-0.7,3.8-2.1
		c0.9-1.4,1.3-3.4,1.4-6V188.4z"/>
	<path class="st1" d="M218.6,193.3v9.2h-6.5v-27h10.8c2.1,0,3.9,0.4,5.5,1.1c1.6,0.8,2.8,1.8,3.7,3.2c0.9,1.4,1.3,3,1.3,4.8
		c0,2.6-0.9,4.7-2.8,6.3c-1.9,1.6-4.5,2.4-7.8,2.4H218.6z M218.6,188.3h4.3c1.3,0,2.2-0.3,2.9-0.9c0.7-0.6,1-1.5,1-2.7
		c0-1.3-0.3-2.3-1-3c-0.7-0.8-1.6-1.1-2.8-1.2h-4.3V188.3z"/>
</g>
</svg>
