<svg id="Calque_1" data-name="Calque 1" xmlns="http://www.w3.org/2000/svg" viewBox="0 0 250 250"><defs><style>.cls-1{fill:#ff3d38;}.cls-2{fill:#fff;}</style></defs><title>news-article-ad-illustration</title><rect class="cls-1" x="120.66" y="32.47" width="124.34" height="181.93"/><path class="cls-2" d="M205.14,86.16a3,3,0,0,0-3.81,4.56c13.54,11.3,18.42,24.78,13.71,38-5.17,14.48-19.45,23.54-29.73,23.64h-.26c-10.12,0-11.87-5.77-14.5-14.47-.18-.59-.36-1.19-.54-1.78a15.54,15.54,0,0,0,3.22-2.82c4.18-4.76,5.78-12.12,3.82-17.49a10.24,10.24,0,0,0-8.36-6.89,15.16,15.16,0,0,0-7.9.68c2.5-5.67,5-11.63,7.52-17.71,6.86-16.59,10.53-36.19,3.26-42.55-2.14-1.87-6-3.35-12.2.25-9.51,5.51-10.25,24-11.18,47.39-.37,9.38-.77,19.48-1.84,29.17-.61,1.14-1.22,2.25-1.83,3.34-9.65,17.13-14.9,17.72-16.71,17.18a3.34,3.34,0,0,1-2-1.87c-1.62-3.05-1.75-8.4-1.14-14.27a180.86,180.86,0,0,0,5.28-24.88,3,3,0,0,0-5.79-1.26,145.65,145.65,0,0,0-5.3,24.63c-2.72,9-6,16.34-9.11,17.28-2.14.65-3.17-.09-3.76-.71-2.71-2.86-3.55-11.66,1-24.23,3.06-8.43,6.2-10.53,7.79-11a3.73,3.73,0,0,1,3.1.37,3,3,0,0,0,3.56-4.76,9.56,9.56,0,0,0-8.24-1.34c-4.78,1.4-8.75,6.36-11.79,14.74-3.68,10.11-4.52,19.2-2.57,25.34a3,3,0,0,0-4,1.07c-1.08,1.8-5,7.08-8.48,7.68a3.3,3.3,0,0,1-2.76-.8c-5.32-5.76,1.79-22.19,8.67-33.41q1.26-1.81,2.41-3.75a3,3,0,0,0-5-3.18c-.38.55-1.23,1.84-2.34,3.64-6.33,9.07-14,14.2-19.71,15.59.78-2.83,1-5.42.09-7.31-1.51-3.29-4.16-5.18-7.28-5.18h0a8.14,8.14,0,0,0-7.23,4.83c-1.44,3.21-.68,6.94,2,10a11.48,11.48,0,0,0,3.88,2.89,93.91,93.91,0,0,1-6.48,10.73,3,3,0,0,0-.37,2.66,142,142,0,0,0-18.09-4.49l-1.91-.3c18.27-27.32,50.62-62,51-62.42a3,3,0,0,0-4.34-4.06c-1.35,1.44-25.47,27.31-43.83,52.16,3.41-18,5.56-37.24,5.59-37.48a3,3,0,1,0-5.91-.65c0,.28-3.21,28.67-7.91,48.31-.19.79-.39,1.6-.59,2.43l-.68,1c-13.4-.68-18,3.79-19.59,6.87a9.54,9.54,0,0,0,4.38,12.71c3.22,1.68,7.46,1.47,11-1.92-4.45,16.53-9.14,32.75-9.21,33a3,3,0,1,0,5.71,1.65c.09-.3,7.52-26,12.6-45.84.86.12,1.74.25,2.66.41,18.49,3.14,44.68,13.32,77.84,30.26a3,3,0,1,0,2.7-5.29c-22-11.25-41.05-19.55-56.94-24.88a2.89,2.89,0,0,0,.72-.71,96.49,96.49,0,0,0,7.72-13c.34,0,.68,0,1-.07a28,28,0,0,0,12.69-5.07c-3.37,8.91-4.93,18.56.55,24.18l.23.21a9.45,9.45,0,0,0,6.12,2.33,9.22,9.22,0,0,0,1.57-.14c6.82-1.15,12-9.53,12.58-10.48a3,3,0,0,0,.34-.91,11,11,0,0,0,1.35,1.79,9.18,9.18,0,0,0,9.81,2.31c3-.91,5.57-3.85,7.78-7.84a15.52,15.52,0,0,0,1.29,3.46,9.37,9.37,0,0,0,5.59,4.77c5.71,1.7,11.38-2.24,17-9.81-.35,2.3-.49,3.82-.51,4.06a3,3,0,0,0,5.82,1.06,120.79,120.79,0,0,0,3.16-15.84c1.86-6.06,4.63-12.09,8.57-15.14a9.25,9.25,0,0,1,7.56-1.9,4.39,4.39,0,0,1,3.71,3.06c1.22,3.34,0,8.41-2.71,11.54a10.57,10.57,0,0,1-.81.82c-2.87-7-7.15-7-8.85-6.67a7.58,7.58,0,0,0-5.8,7.27c0,2.76,1.54,6.08,6.16,7.11a14.38,14.38,0,0,0,5,.26l.44,1.44c2.65,8.76,5.65,18.69,20.19,18.69h.31c14.06-.14,29.89-12.51,35.26-27.59C223.89,121.59,226.19,103.72,205.14,86.16ZM19.41,155c-1.87,3.57-4.17,5-6.31,3.87-1.59-.83-2.74-3-1.84-4.71,1-1.95,4.33-3.6,10.69-3.73C21,152,20.19,153.5,19.41,155Zm42.12-23.77a5.55,5.55,0,0,1-1.87-1.39c-1.14-1.29-1.52-2.58-1-3.63a2.17,2.17,0,0,1,1.83-1.32h0c.9,0,1.52.93,1.88,1.71S62.35,129,61.54,131.21Zm92-19.79c.27-4.85.46-9.64.65-14.27.79-19.86,1.54-38.61,8.22-42.48a8.79,8.79,0,0,1,3.91-1.39,2,2,0,0,1,1.4.47c3,2.58,3.46,15.75-4.83,35.81C160.18,96,157,103.74,153.5,111.42Zm7.27,20.64c-1.52-.34-1.51-1-1.51-1.2a1.77,1.77,0,0,1,.94-1.54h0c.18,0,1.15.49,2.2,3A9,9,0,0,1,160.77,132.06Z"/><path class="cls-2" d="M156.6,192.91a9.17,9.17,0,0,1-1.42,4.63,8.54,8.54,0,0,1-3.63,3.12,12.36,12.36,0,0,1-5.34,1.1,9.87,9.87,0,0,1-7.8-3.23q-2.85-3.23-2.85-9.11v-1.24a15.2,15.2,0,0,1,1.29-6.46,9.74,9.74,0,0,1,3.7-4.28,10.33,10.33,0,0,1,5.59-1.51,10.83,10.83,0,0,1,7.35,2.41,9.51,9.51,0,0,1,3.16,6.64h-6a4.5,4.5,0,0,0-1.16-3.3,4.76,4.76,0,0,0-3.31-1,3.62,3.62,0,0,0-3.31,1.69,10.86,10.86,0,0,0-1.1,5.4v1.78q0,4,1,5.75a3.69,3.69,0,0,0,3.48,1.73,4.65,4.65,0,0,0,3.19-1,4.18,4.18,0,0,0,1.17-3.12Z"/><path class="cls-2" d="M168.35,196.76H178.9v4.66H162.3V176.3h6.06Z"/><path class="cls-2" d="M203.57,176.3v16.45a9.45,9.45,0,0,1-1.19,4.84A7.71,7.71,0,0,1,199,200.7a12,12,0,0,1-5.26,1.07,10.4,10.4,0,0,1-7.23-2.38,8.49,8.49,0,0,1-2.69-6.52V176.3h6.09V193q.1,4.13,3.83,4.12a3.71,3.71,0,0,0,2.85-1,4.84,4.84,0,0,0,1-3.37V176.3Z"/><path class="cls-2" d="M210.18,201.42V176.3h9q4.85,0,7.38,1.78a5.92,5.92,0,0,1,2.53,5.16,6,6,0,0,1-.9,3.33,5.23,5.23,0,0,1-2.64,2,5.3,5.3,0,0,1,3,1.93,5.62,5.62,0,0,1,1.05,3.45,6.65,6.65,0,0,1-2.34,5.55q-2.34,1.86-6.93,1.89Zm6.06-14.65h3.16a4.49,4.49,0,0,0,2.83-.73,2.58,2.58,0,0,0,.85-2.09,2.71,2.71,0,0,0-.92-2.29,4.9,4.9,0,0,0-3-.7h-3Zm0,4v6h4a3.78,3.78,0,0,0,2.52-.75,2.63,2.63,0,0,0,.88-2.11q0-3.14-3.12-3.16Z"/><path class="cls-2" d="M211.72,54.84h-2.06l-.86,5.24h-2.54l.86-5.24h-2.84V52.5h3.22l.56-3.37h-2.83V46.79h3.21l.88-5.32h2.53L211,46.79h2.06l.88-5.32h2.54l-.88,5.32h3v2.34h-3.34l-.56,3.37h2.93v2.34h-3.31l-.86,5.24h-2.54ZM210,52.5h2.06l.56-3.37h-2.06Z"/><path class="cls-2" d="M231.89,60.08h-4.32V46.33l-4.24,1.24V44.3l8.17-2.82h.4Z"/></svg>