<svg id="Calque_1" data-name="Calque 1" xmlns="http://www.w3.org/2000/svg" viewBox="0 0 64 64"><defs><style>.cls-1{fill:#050507;}</style></defs><title>confusion</title><path class="cls-1" d="M46.84,40.86c-.7-2.29-.7-2.29-2.5-1.16-.67,1-1.23,1.7-2.72,1A20.93,20.93,0,0,0,37,39.57c1.18,2.06.81,2.75-1.39,2.84-.57,0-1.15.09-1.72.14-.18,1.09-1.12,1.08-1.88,1.33a1,1,0,0,0,.08-.19l-.19-.29c-.25-1.42.17-2.91.13-4.16-.06-2,1.91-4.42-.55-6.28-.52-.4-.4-1.36-.12-1.86,1.25-2.25,1.87-4.47,1-6s.08-2.79.21-4.08c.09-.92,1.68-1,2.61,0,0,0,.34-.32.55-.46,1.09-.71,1.57-.09,1.62.9.1,1.83,1.07,1.65,2.28,1.13.55-.24,1.22-.47,1.67-.11,1.75,1.42,3.66,0,5.43.59.19-1-1.14-1.18-.8-2.06.67-1.76,0-3-1.4-4.06-.64-.49-.86-1-.11-1.81,1.26-1.35.68-3.32-1.06-4.17-2-1-4.06-1.72-5.95.35A.83.83,0,0,1,36,11.14c-.24-.45-.32-.76-1-.74-3,.11-6,.15-9.07,0a4.67,4.67,0,0,0-4.62,2.42c-1.08,1.83.33,3.21-.39,4.66-.09,2.37-.89,4.8.52,7.06,1.07,1.27-.67,1.68-.86,2.63-.49,2.44,0,5-.71,7.35.1.38.17.62-.31.94-1.13.74-.84,1.18.42,1.2a1.65,1.65,0,0,0,.75-.37,3.69,3.69,0,0,0,.75.67c1.15.77,2.6,2,.86,3-3.07,1.62-2.07,2.43.15,3.5.55.52.32,1,0,1.58-.33,1.45-2.14.77-2.47,1.4-1,2,1.22,3.21,1.62,5,.15.66.92,1,1.83.49.26-.15,2.33-1.45,1.57,1-.22.71.54.67.93.86a1.79,1.79,0,0,0,2.09-.27c.57-.52-.18-.8-.32-1.2C27,50.17,28,49,30,49.39c.35.56,1.25.94.51,1.85a1,1,0,0,0,.19,1.53c.68.61,1-.09,1.44-.36s1.25-.94,1.71-.13c1.26,2.22,2.72,1,4,.23s1.78-.3,2.17.83c.27.35.54.35.82,0,.12-1.25,1.1-.87,1.85-1,1-.22,2.43.13,2.63-1.53A2.54,2.54,0,0,0,45,49.35a5.18,5.18,0,0,1,1.45-2.92c.67-.67-.52-1.33,0-2l0-2.43a5.11,5.11,0,0,0-.41-.88A.68.68,0,0,0,46.84,40.86ZM40.78,12.58c.69,0,.94.46,1.09,1a.82.82,0,0,1-1,.85,1,1,0,0,1-1-.89A.83.83,0,0,1,40.78,12.58ZM20.88,49c-.47,0-.49-.32-.46-.62s-.08-.89.54-.79c.34.05.45.4.42.75S21.28,49,20.88,49Zm3.85-.74a1,1,0,0,1,.07-1.92c.59.19.65.68.65,1.18S25.24,48.37,24.74,48.29Zm.64-4.89C24,43.31,24.09,41.94,24,40.92s.39-1.84,1.23-1.78c1.34.09,1.14,1.41,1.19,2.34S26.39,43.46,25.37,43.4Zm8.9,5.73c-.19,1-1.1.71-1.8.27v-.32l-.15.07.13-1.34v-.31C33.18,47.93,34.49,48,34.27,49.13Zm8.61.74c-.37-.62-1.75-.2-1.5-1.46C42.65,48.1,43.86,47.86,42.88,49.87Zm-.35-4.6c-.55,0-.63-.36-.74-.75-.16-.55.31-.7.62-.85a.61.61,0,0,1,.86.52C43.36,44.72,43,45.06,42.54,45.27Z"/></svg>