<svg id="Calque_1" data-name="Calque 1" xmlns="http://www.w3.org/2000/svg" viewBox="0 0 64 64"><title>elpatin</title><path d="M31.95,19c3.93.21,8.37,3,8,8.32A8.26,8.26,0,0,1,37,33.07a7.9,7.9,0,0,1-3.91,1.53,7.65,7.65,0,0,1-5.29-1.09,6.5,6.5,0,0,1-2.45-2.71,18.31,18.31,0,0,1-1-2.48,5.59,5.59,0,0,1,.44-4.17,7.78,7.78,0,0,1,6.19-5C31.32,19.08,31.7,19.06,31.95,19Zm.88,1.6v5.54a3.87,3.87,0,0,1,1.21,0c.32.12.55.47.83.72C35.48,25.68,34.38,22.26,32.83,20.64Zm-4.71,7-1.78-.1c-.56,0-.72.15-.57.7s.43,1.28.65,1.91c.47,1.36,1.75,1.85,2.86,2.75C28.74,31.05,27.35,29.59,28.12,27.63Zm4.7,0v5.25c1.65-1.47,1.7-3.5,2.22-5.46Zm-4.54,0c1.12.28,1.15.31,1.3,1.34.07.47.18.93.23,1.39A4.05,4.05,0,0,0,31.29,33a18.86,18.86,0,0,0-.17-5.32C30.22,27.85,29.31,27,28.28,27.7ZM28,26.11a8.19,8.19,0,0,1-.1-1.36A8.38,8.38,0,0,1,29,21.62c.07-.13.12-.27.2-.44a.9.9,0,0,0-.19,0,5.76,5.76,0,0,0-3.23,4.73c0,.29.09.39.4.33a6.7,6.7,0,0,1,.9-.08Zm6.85,6.62a5.84,5.84,0,0,0,3.51-5.07l-2.53-.22c.69.52.74.65.57,1.48a3,3,0,0,1-.16.53C35.81,30.56,35.34,31.65,34.88,32.73ZM34.66,21c.38.42.68.72.94,1a1.89,1.89,0,0,1,.58,1.83,2.62,2.62,0,0,0,.19,2c0,.1.12.24.2.25.64.11,1.28.2,1.93.29A6,6,0,0,0,34.66,21Zm-5.42,5.41,1.57-.08c.69,0,.7,0,.7-.72a6.71,6.71,0,0,0-.08-.75c-.08-.68-.19-1.36-.24-2s0-1.13,0-1.69C29.92,22.6,29.8,24.51,29.23,26.38Z"/><path d="M32.59,40.32c-3.78.14-7.56.3-11.34.4a19.56,19.56,0,0,1-5.89-.27A19.42,19.42,0,0,1,11.9,39.2c-.48-.24-1-.4-1.44-.59a4.25,4.25,0,0,1-2.07-2c-.09-.16-.16-.33-.25-.5-.27-.53-.16-.73.44-.78a2.62,2.62,0,0,1,1.52.58,17.21,17.21,0,0,0,5,2.37,9.62,9.62,0,0,0,1.76.16c3.44,0,6.89.05,10.33,0,2.06,0,4.11-.23,6.16-.4a39,39,0,0,1,6.47.16,31.18,31.18,0,0,0,9.82-.43,9.88,9.88,0,0,0,3.06-1.3,22.44,22.44,0,0,1,2.19-1.27,1.31,1.31,0,0,1,.94.05c.12,0,.15.44.14.67,0,1.38-1.08,2-2.1,2.47-1.57.72-3.23,1.25-4.87,1.82a3.74,3.74,0,0,1-1.2.17c-3,0-5.91,0-8.86,0H32.59Z"/><path d="M21.46,45.9c-.08.86-.38,1.3-1.07,1.46a2.14,2.14,0,0,0-.52.18,1.72,1.72,0,0,1-2.46-.42c-.22-.23-.41-.49-.63-.73a1.9,1.9,0,0,1-.25-2c.1-.3.54-.49.84-.71a4.64,4.64,0,0,1,.88-.57,1.64,1.64,0,0,1,2,.57c.09.12.17.28.3.34C21.44,44.39,21.38,45.18,21.46,45.9ZM19,44.68a.88.88,0,0,0-.81.84c0,.35.43.77.79.64a1.42,1.42,0,0,0,.73-.79C19.81,45,19.39,44.69,19,44.68Z"/><path d="M45.35,47.9c-.45-.18-1.07,0-1.39-.71a5.5,5.5,0,0,0-.89-1A1.33,1.33,0,0,1,43,44.79c.29-.8.62-1.6,1.76-1.69a3,3,0,0,1,1.67.32.86.86,0,0,1,.37.51,3.46,3.46,0,0,0,.75,1.69.34.34,0,0,1,.08.23A3.34,3.34,0,0,1,45.35,47.9Zm.56-2.47c0-.53-.18-.69-.76-.71s-.58.3-.59.69a.76.76,0,0,0,.81.82A.63.63,0,0,0,45.91,45.43Z"/></svg>