<svg id="Calque_1" data-name="Calque 1" xmlns="http://www.w3.org/2000/svg" viewBox="0 0 64 64"><title>girls-skate-uk</title><path d="M24.5,25.62V22.76h7.39v6.77a9.31,9.31,0,0,1-3.12,1.84,11.37,11.37,0,0,1-4.14.79A9.3,9.3,0,0,1,20,31a7.11,7.11,0,0,1-3-3.2,10.34,10.34,0,0,1-1-4.53,9.78,9.78,0,0,1,1.11-4.72,7.49,7.49,0,0,1,3.26-3.16,8.79,8.79,0,0,1,4.07-.85,8.12,8.12,0,0,1,4.94,1.33,6,6,0,0,1,2.29,3.67l-3.41.64a3.6,3.6,0,0,0-1.35-2,4.08,4.08,0,0,0-2.47-.72,4.65,4.65,0,0,0-3.58,1.43,6,6,0,0,0-1.33,4.23,6.65,6.65,0,0,0,1.34,4.54,4.49,4.49,0,0,0,3.52,1.51,5.91,5.91,0,0,0,2.16-.42,7.41,7.41,0,0,0,1.86-1V25.62Z"/><path d="M34.18,26.34,37.52,26a4.07,4.07,0,0,0,1.22,2.47,3.7,3.7,0,0,0,2.49.79,3.82,3.82,0,0,0,2.5-.7,2.09,2.09,0,0,0,.84-1.64,1.55,1.55,0,0,0-.35-1A2.83,2.83,0,0,0,43,25.17q-.6-.21-2.75-.74a9.32,9.32,0,0,1-3.87-1.68,4.42,4.42,0,0,1-1.56-3.42,4.37,4.37,0,0,1,.74-2.43,4.61,4.61,0,0,1,2.12-1.72A8.5,8.5,0,0,1,41,14.59,7.17,7.17,0,0,1,45.82,16a5,5,0,0,1,1.7,3.74l-3.43.15A2.91,2.91,0,0,0,43.14,18,3.46,3.46,0,0,0,41,17.43a3.92,3.92,0,0,0-2.34.61,1.24,1.24,0,0,0-.54,1.05,1.31,1.31,0,0,0,.51,1,9,9,0,0,0,3.15,1.14,16.64,16.64,0,0,1,3.7,1.22,4.77,4.77,0,0,1,1.88,1.73,5.35,5.35,0,0,1-.13,5.44,4.86,4.86,0,0,1-2.29,1.89,9.62,9.62,0,0,1-3.7.62,7.36,7.36,0,0,1-4.95-1.49A6.48,6.48,0,0,1,34.18,26.34Z"/><path d="M17.75,34.14h3.19V42.7a17.75,17.75,0,0,0,.12,2.64,2.56,2.56,0,0,0,1,1.56,3.4,3.4,0,0,0,2.11.59,3.21,3.21,0,0,0,2-.56A2.19,2.19,0,0,0,27,45.56a17.77,17.77,0,0,0,.14-2.68V34.14h3.19v8.3a21.32,21.32,0,0,1-.26,4,4.45,4.45,0,0,1-1,2,4.82,4.82,0,0,1-1.86,1.29,8.09,8.09,0,0,1-3,.48,8.75,8.75,0,0,1-3.43-.52A4.91,4.91,0,0,1,19,48.33a4.35,4.35,0,0,1-.89-1.75,19.19,19.19,0,0,1-.31-4Z"/><path d="M33.75,49.94V34.14h3.19v7l6.44-7h4.29l-5.95,6.15L48,49.94H43.87l-4.34-7.41-2.59,2.64v4.77Z"/></svg>