<svg id="Calque_1" data-name="Calque 1" xmlns="http://www.w3.org/2000/svg" viewBox="0 0 64 64"><title>grey</title><path d="M16.51,24.71a7.26,7.26,0,0,0,2.82.21h1.83v1.39H19.27a1.1,1.1,0,0,0,.14.19,2.91,2.91,0,0,1-.16,4.4A5.4,5.4,0,0,1,15.77,32a19.52,19.52,0,0,1-2.44-.23.69.69,0,0,0-.75.6.54.54,0,0,0,.45.71,2.2,2.2,0,0,0,.39,0c1.45,0,2.9,0,4.35,0a6.86,6.86,0,0,1,1.35.13,3,3,0,0,1,2.23,4.27,3.5,3.5,0,0,1-2,2A21.62,21.62,0,0,1,17,40.2l-.32.09H13.87l-.41-.09C12.1,40,10.73,39.76,10,38.35v-.88a2.17,2.17,0,0,1,1.7-1.11,2.39,2.39,0,0,1-1.17-2.61,3.47,3.47,0,0,1,1.88-2.25L12,31.22a2.9,2.9,0,0,1-1.34-1.88,3.6,3.6,0,0,1,2.53-4.25c.46-.16,1-.26,1.43-.38ZM15.22,36.9H12.84c-.58,0-.72.16-.61.73A1.85,1.85,0,0,0,13.8,39a7.11,7.11,0,0,0,3.61,0,2.79,2.79,0,0,0,.79-.36,1.1,1.1,0,0,0,.53-1.24c-.16-.51-.6-.5-1-.51C16.89,36.89,16.05,36.9,15.22,36.9Zm1.38-8.22h-.08a4.85,4.85,0,0,0,0-1A6.67,6.67,0,0,0,16,26a.73.73,0,0,0-1.35.08,1.28,1.28,0,0,0-.16.5c0,.93-.08,1.87,0,2.8a3.87,3.87,0,0,0,.34,1.21.76.76,0,0,0,.81.54.77.77,0,0,0,.71-.68C16.45,29.89,16.51,29.28,16.59,28.68Z"/><path d="M44.76,40.29l-.27-.12c-.83-.36-1-.56-1-1.35,0-.32,0-.64,0-.93.67,0,1.3.12,1.92.12a1.88,1.88,0,0,0,2-1.52.57.57,0,0,0-.05-.37q-2.3-4.83-4.63-9.65a.94.94,0,0,0-.47-.49c-.61-.17-.54-.58-.46-1h6.82v.82l-.66.13c-.58.14-.74.4-.52,1,.55,1.39,1.13,2.76,1.7,4.14.09.21.18.42.31.71l.44-1.08c.49-1.21,1-2.41,1.45-3.63.29-.73.14-1-.62-1.13l-.52-.1v-.86H54v.88a1.52,1.52,0,0,0-1.13,1c-.36.91-.76,1.81-1.14,2.7-1.23,2.86-2.45,5.72-3.69,8.58a3.53,3.53,0,0,1-2.22,2.19Z"/><path d="M38.34,24.71a1.45,1.45,0,0,0,.23.09,4,4,0,0,1,3.36,4.13c0,.25,0,.49,0,.78H35.64a3.32,3.32,0,0,0,1.45,3.2c1.34.78,3,.43,4.47-1,.4.09.43.31.31.68-.84,2.68-3,3.76-5.76,3.31a4.94,4.94,0,0,1-4.31-5.16,5.62,5.62,0,0,1,2.63-5.23,12.44,12.44,0,0,1,2-.83Zm.16,4A17.83,17.83,0,0,0,38,26.31a1,1,0,0,0-1.83-.19,4.57,4.57,0,0,0-.61,2.57Z"/><path d="M30.68,24.71c.48.15.61.46.59,1,0,.8,0,1.61,0,2.48a10.87,10.87,0,0,0-1.24,0c-.74.09-1.47.22-2.2.35-.29.05-.41.23-.41.56,0,1.58,0,3.17,0,4.75,0,.68.18.89.83,1a1.22,1.22,0,0,0,.3.06c.39,0,.47.19.43.52,0,.11,0,.23,0,.37H22.41V35s.07-.05.09-.06c.88-.12.94-.18.94-1.08,0-2,0-3.9,0-5.85a1.09,1.09,0,0,0-.67-1.21.69.69,0,0,1-.38-.37c-.08-.3-.06-.56.38-.67,1.17-.28,2.31-.64,3.47-1a1.18,1.18,0,0,0,.19-.09h1.06c0,.45-.06.9-.07,1.35s0,.9,0,1.35c.5-1.1.87-2.28,2.19-2.71Z"/></svg>