<svg id="Calque_1" data-name="Calque 1" xmlns="http://www.w3.org/2000/svg" viewBox="0 0 64 64"><title>medium</title><path d="M37.39,44.5H26.9c0-.69-.1-1.36-.1-2,0-4,0-8.1,0-12.15a4.49,4.49,0,0,0-.33-2.43,4.14,4.14,0,0,0-2.54-1.8,3.42,3.42,0,0,0-2.6,1.68,10.42,10.42,0,0,0-.63,4.13c-.07,4.16,0,8.32,0,12.59H10.3V19h9.37l.42,2.46a9.92,9.92,0,0,1,8-3.28c3,.08,5.7,1,7.7,3.75a11.6,11.6,0,0,1,7.54-3.73c5.78-.57,10,2.28,10.44,7.93.43,6.05.1,12.16.1,18.34H43.63c0-1.52,0-3,0-4.43-.09-3.85-.14-7.7-.33-11.54A2.46,2.46,0,0,0,40.72,26a2.7,2.7,0,0,0-3,2.37,19.33,19.33,0,0,0-.3,3.44C37.37,35.94,37.39,40.1,37.39,44.5Z"/></svg>