<svg id="Calque_1" data-name="Calque 1" xmlns="http://www.w3.org/2000/svg" viewBox="0 0 64 64"><title>nantes-sb</title><path d="M17.22,32.36c-.81,3.09-1.68,6.34-2.52,9.61a.81.81,0,0,1-.94.73c-1.55,0-3.1,0-4.76,0,.28-1,.52-1.91.78-2.81C11.4,34.26,13,28.64,14.62,23c.2-.7.45-1,1.23-1a25.24,25.24,0,0,0,3.29,0c.75,0,1,.22,1.06.95.3,3.58.64,7.16,1,10.76.25-1.25.45-2.52.76-3.77.61-2.45,1.26-4.89,1.93-7.33a.92.92,0,0,1,.65-.56c1.61,0,3.23,0,5,0L23.61,42.64H18.08Z"/><path d="M36.54,42.69c.72-2.55,1.4-4.94,2.09-7.34C39.81,31.23,41,27.11,42.18,23a1,1,0,0,1,1.26-.92c2.4.08,4.81.06,7.22.15a6.4,6.4,0,0,1,2.11.51c1.82.75,2.6,2.6,2.07,4.83A5.36,5.36,0,0,1,50.62,32a4.13,4.13,0,0,0-.52.21l.54.17A2.82,2.82,0,0,1,52.78,36a8,8,0,0,1-7.22,6.6c-2.58.19-5.18.07-7.77.09Zm7-4.39c.41,0,.68,0,.95,0A2.86,2.86,0,0,0,47,35.83a1.38,1.38,0,0,0-1.25-1.52c-.8-.17-1.22.08-1.39.93C44.15,36.24,43.81,37.22,43.51,38.3ZM46,29.81c1.82.27,3.23-.85,3.12-2.41-.06-.81-.64-.94-1.26-1s-1,.06-1.11.73C46.5,28,46.21,28.9,46,29.81Z"/><path d="M39,29a15.84,15.84,0,0,0-1.44-1.54,1.92,1.92,0,0,0-2.06-.32c-1.32.55-1.53,1.56-.5,2.54.44.42.91.81,1.36,1.23a4.52,4.52,0,0,1,1.4,4.4A9.16,9.16,0,0,1,25,41.78l1.76-6.14c.32.41.54.74.8,1a2.76,2.76,0,0,0,3.29.8A1.45,1.45,0,0,0,31.28,35c-.38-.4-.81-.74-1.2-1.12a4.78,4.78,0,0,1-1.3-5.59c1.38-3.43,3.78-5.79,7.62-6.1a12.92,12.92,0,0,1,3.81.7.85.85,0,0,1,.38.73C40.11,25.4,39.57,27.2,39,29Z"/></svg>