<svg id="Calque_1" data-name="Calque 1" xmlns="http://www.w3.org/2000/svg" viewBox="0 0 64 64"><defs><style>.cls-1{fill:#ffdd16;}</style></defs><title>skate-nugg</title><rect width="64" height="64"/><path d="M54,54H10V10H54ZM49,40.87a4.41,4.41,0,0,1-2.56,1.66A4.35,4.35,0,0,1,41.18,40a7.67,7.67,0,0,1-.34-4.33c.72-3.9,4.53-4.5,6.91-3.34a3.62,3.62,0,0,1,2,2.83c-.44-.13-.93.27-1.14-.35a3,3,0,0,0-2.94-2.08,3.22,3.22,0,0,0-3.35,1.84A6.37,6.37,0,0,0,42,39.25a3.5,3.5,0,0,0,4.14,2.44,3.35,3.35,0,0,0,2.7-3.77H46.12c-.74,0-.79-.06-.58-.9h4c.39,0,.32.27.32.5,0,1.39,0,2.79,0,4.18,0,.13,0,.26,0,.46A20,20,0,0,0,52.71,31.5H44.35a1.6,1.6,0,0,1-.05-.24c0-3.23,0-6.46,0-9.69,0-.39.22-.39.5-.39H49.9A20.75,20.75,0,0,0,29.44,11a20.27,20.27,0,0,0-9.14,3.4,20.7,20.7,0,0,0-6.66,7.31,4.63,4.63,0,0,1,4.83-.18A2.88,2.88,0,0,1,19.75,24c-.87.2-.85.16-1.1-.58a2.48,2.48,0,0,0-.74-1.1,3.17,3.17,0,0,0-3.38,0,1.67,1.67,0,0,0,.22,2.92,7,7,0,0,0,1.14.39c.88.26,1.78.45,2.63.77A2.29,2.29,0,0,1,20,28.63a2.62,2.62,0,0,1-1.39,2.61,5,5,0,0,1-4.1.24,2.9,2.9,0,0,1-1.93-2.15c-.24-.95-.13-1.06.89-.9,0,.16.07.34.11.52a2.25,2.25,0,0,0,1.47,1.72,3.87,3.87,0,0,0,2.54,0A1.86,1.86,0,0,0,19,28.87a1.72,1.72,0,0,0-1.29-1.77,6.92,6.92,0,0,0-.84-.26l-1.39-.34c-1.49-.38-2.74-1-2.73-3a21.07,21.07,0,0,0-1.64,9.25,18.87,18.87,0,0,0,2.61,8.84V32.13a1.28,1.28,0,0,1,1.63.66c1.41,2.23,2.89,4.42,4.35,6.62l.94,1.42.1,0V21.29h1v5c1.56-1.52,3.17-3,4.7-4.59A1.45,1.45,0,0,1,28,21.29l.14.17L24,25.32l4.75,6.17c-1,.22-1.12.18-1.65-.51l-.77-1-3.06-4c-.41.43-.77.85-1.17,1.22a1.16,1.16,0,0,0-.39,1q0,6.74,0,13.49c0,.23,0,.46,0,.66a1.32,1.32,0,0,1-1.67-.65c-1.53-2.43-3.15-4.82-4.73-7.22l-.61-.92c0,.19,0,.24,0,.29,0,3.1,0,6.2,0,9.3a1.18,1.18,0,0,0,.21.65,20.08,20.08,0,0,0,14.61,8.62c7.93.82,14.35-2.09,19.22-8.39a1.19,1.19,0,0,0,.24-.64C49,42.52,49,41.7,49,40.87Zm3.74-10.28a23.38,23.38,0,0,0-1.69-7.26c-.39-1-.89-1.43-2-1.26a11.37,11.37,0,0,1-1.76,0h-2v3.65h5.2v.86H45.36v4Z"/><path class="cls-1" d="M49,40.87c0,.82,0,1.65,0,2.47a1.19,1.19,0,0,1-.24.64c-4.87,6.31-11.29,9.21-19.22,8.39a20.08,20.08,0,0,1-14.61-8.62,1.18,1.18,0,0,1-.21-.65c0-3.1,0-6.2,0-9.3,0-.05,0-.1,0-.29l.61.92c1.58,2.4,3.19,4.79,4.73,7.22a1.32,1.32,0,0,0,1.67.65c0-.2,0-.43,0-.66q0-6.74,0-13.49a1.16,1.16,0,0,1,.39-1c.41-.37.76-.78,1.17-1.22l3.06,4,.77,1c.53.69.64.73,1.65.51L24,25.32l4.08-3.86L28,21.29a1.45,1.45,0,0,0-1.49.42c-1.54,1.57-3.14,3.07-4.7,4.59v-5h-1v19.5l-.1,0-.94-1.42c-1.45-2.2-2.94-4.39-4.35-6.62a1.28,1.28,0,0,0-1.63-.66V41.6a18.87,18.87,0,0,1-2.61-8.84,21.07,21.07,0,0,1,1.64-9.25c0,2,1.25,2.62,2.73,3l1.39.34a6.92,6.92,0,0,1,.84.26A1.72,1.72,0,0,1,19,28.87a1.86,1.86,0,0,1-1.38,1.84,3.87,3.87,0,0,1-2.54,0,2.25,2.25,0,0,1-1.47-1.72c0-.18-.08-.35-.11-.52-1-.16-1.13,0-.89.9a2.9,2.9,0,0,0,1.93,2.15,5,5,0,0,0,4.1-.24A2.62,2.62,0,0,0,20,28.63a2.29,2.29,0,0,0-1.52-2.27c-.85-.32-1.75-.51-2.63-.77a7,7,0,0,1-1.14-.39,1.67,1.67,0,0,1-.22-2.92,3.17,3.17,0,0,1,3.38,0,2.48,2.48,0,0,1,.74,1.1c.25.74.23.77,1.1.58a2.88,2.88,0,0,0-1.28-2.46,4.63,4.63,0,0,0-4.83.18,20.7,20.7,0,0,1,6.66-7.31A20.27,20.27,0,0,1,29.44,11,20.75,20.75,0,0,1,49.9,21.18H44.78c-.28,0-.5,0-.5.39,0,3.23,0,6.46,0,9.69a1.6,1.6,0,0,0,.05.24h8.35A20,20,0,0,1,50,42.16c0-.2,0-.33,0-.46,0-1.39,0-2.79,0-4.18,0-.23.07-.5-.32-.5h-4c-.21.83-.16.9.58.9h2.73a3.35,3.35,0,0,1-2.7,3.77A3.5,3.5,0,0,1,42,39.25a6.37,6.37,0,0,1,.33-4.72,3.22,3.22,0,0,1,3.35-1.84,3,3,0,0,1,2.94,2.08c.22.62.71.22,1.14.35a3.62,3.62,0,0,0-2-2.83c-2.38-1.15-6.18-.56-6.91,3.34A7.67,7.67,0,0,0,41.18,40a4.35,4.35,0,0,0,5.28,2.57A4.41,4.41,0,0,0,49,40.87Zm-9.64-.09v1.54h.83V37.06H35.84v.86h3.35a3.39,3.39,0,0,1-2,3.57,3.57,3.57,0,0,1-4.18-1,6,6,0,0,1,.13-6.62c1.52-1.81,4.79-1.46,5.73.62.33.73.42.77,1.26.54-.07-.24-.13-.49-.22-.73-1.15-3.11-5.92-3.19-7.66-1a6.55,6.55,0,0,0-1.09,5.28A4.52,4.52,0,0,0,33.24,42C35.2,43.21,37.62,42.75,39.37,40.78ZM29.56,32.1c0,.27,0,.5,0,.73,0,2,0,4.07,0,6.11s-1.18,2.94-3.19,2.83a2.46,2.46,0,0,1-2.61-2.37,9.17,9.17,0,0,1-.09-1.31c0-1.78,0-3.56,0-5.34,0-.21,0-.43,0-.65h-1c0,2.47,0,4.9,0,7.34a3.49,3.49,0,0,0,.58,1.64c1,1.66,4,2.14,5.77,1a3.57,3.57,0,0,0,1.55-3.17c0-2.15,0-4.29,0-6.44a2.08,2.08,0,0,0-.06-.35ZM38,31.45c-.05-.16-.09-.28-.13-.4-1.19-3.1-2.38-6.19-3.56-9.29-.14-.38-.29-.6-.76-.6a.76.76,0,0,0-.84.57c-1,2.63-2.06,5.26-3.09,7.88-.24.6-.46,1.21-.7,1.83,1,.11,1,.11,1.32-.71s.52-1.37.76-2.06a.5.5,0,0,1,.55-.4q1.9,0,3.8,0a.53.53,0,0,1,.6.42c.23.68.48,1.35.72,2C37,31.58,37,31.58,38,31.45Zm2.55-9.37h3.18v-.87l-.24,0H36.72c-.34,0-.44.12-.45.45s.14.47.49.47c.91,0,1.82,0,2.81,0v9.38h1Z"/><path class="cls-1" d="M52.75,30.59H45.36v-4h5.21v-.86h-5.2V22.09h2a11.37,11.37,0,0,0,1.76,0c1.07-.17,1.57.29,2,1.26A23.38,23.38,0,0,1,52.75,30.59Z"/><path d="M39.37,40.78c-1.76,2-4.18,2.43-6.13,1.26a4.52,4.52,0,0,1-2.09-3.45,6.55,6.55,0,0,1,1.09-5.28c1.74-2.23,6.51-2.14,7.66,1,.09.24.15.48.22.73-.84.23-.93.19-1.26-.54-.94-2.08-4.21-2.43-5.73-.62A6,6,0,0,0,33,40.45a3.57,3.57,0,0,0,4.18,1,3.39,3.39,0,0,0,2-3.57H35.84v-.86h4.37v5.26h-.83Z"/><path d="M29.56,32.1h1a2.08,2.08,0,0,1,.06.35c0,2.15,0,4.29,0,6.44A3.57,3.57,0,0,1,29,42.05c-1.77,1.16-4.75.68-5.77-1a3.49,3.49,0,0,1-.58-1.64c-.06-2.43,0-4.87,0-7.34h1c0,.23,0,.44,0,.65,0,1.78,0,3.56,0,5.34a9.17,9.17,0,0,0,.09,1.31,2.46,2.46,0,0,0,2.61,2.37c2,.11,3.11-.81,3.19-2.83s0-4.07,0-6.11C29.56,32.6,29.56,32.37,29.56,32.1Z"/><path d="M38,31.45c-1,.13-1,.13-1.32-.73-.24-.67-.5-1.34-.72-2a.53.53,0,0,0-.6-.42q-1.9,0-3.8,0a.5.5,0,0,0-.55.4c-.24.69-.5,1.38-.76,2.06s-.31.82-1.32.71c.24-.62.46-1.23.7-1.83,1-2.63,2.07-5.25,3.09-7.88a.76.76,0,0,1,.84-.57c.47,0,.62.22.76.6,1.18,3.1,2.37,6.2,3.56,9.29C38,31.17,38,31.29,38,31.45Zm-6.47-4.08h3.89l-1.95-5.23Z"/><path d="M40.59,22.09v9.38h-1V22.09c-1,0-1.9,0-2.81,0-.35,0-.49-.1-.49-.47s.11-.45.45-.45h6.82l.24,0v.87Z"/><path class="cls-1" d="M31.58,27.37l1.95-5.23,1.95,5.23Z"/></svg>