<svg id="Calque_1" data-name="Calque 1" xmlns="http://www.w3.org/2000/svg" viewBox="0 0 64 64"><title>skateism</title><path d="M12.23,35.1c.33.39.64.79,1,1.17a8.18,8.18,0,0,0,9.08,1.82,12.66,12.66,0,0,0,3.4-2c6.28-5.3,12.5-10.67,18.75-16l.49-.39L38.58,12.2c.35,0,.58-.05.81-.05H49.56A2.13,2.13,0,0,1,52,14.58q0,6.1,0,12.21c0,.21,0,.43,0,.64-.11,0-.18,0-.2,0-2.89-3.3-7.83-3.34-11.22-1.11A34.77,34.77,0,0,0,37.21,29q-8.45,7.2-16.89,14.43l-.42.36,6.86,8.07h-1c-3.61,0-7.22,0-10.82,0a2.66,2.66,0,0,1-2.72-1.48Z"/><path d="M12.23,13.6a2.67,2.67,0,0,1,2.72-1.48c4.15.05,8.3,0,12.45,0h1l-4.72,4q-3.89,3.33-7.79,6.66A16.1,16.1,0,0,0,12.23,27Z"/><path d="M35.84,51.83c5.4-4.83,11-9.13,16.1-14a3.19,3.19,0,0,1,.06.47q0,5.62,0,11.23a2.09,2.09,0,0,1-2.35,2.36h-13Z"/><circle cx="21.65" cy="26.37" r="0.41"/><circle cx="24.61" cy="23.9" r="0.41"/><circle cx="23.64" cy="28.73" r="0.41"/><circle cx="26.6" cy="26.26" r="0.41"/><circle cx="37.88" cy="36.86" r="0.41"/><circle cx="40.84" cy="34.39" r="0.41"/><circle cx="39.87" cy="39.22" r="0.41"/><circle cx="42.83" cy="36.75" r="0.41"/></svg>