<svg id="Calque_1" data-name="Calque 1" xmlns="http://www.w3.org/2000/svg" viewBox="0 0 64 64"><title>street-piracy</title><path d="M12.63,26.74a6.73,6.73,0,0,1-1.6-.2A5.6,5.6,0,0,1,9.62,26L9,26.47H8.47L9.18,23h.58a5,5,0,0,0,.3,1,3.67,3.67,0,0,0,.56,1,2.75,2.75,0,0,0,.85.73,2.39,2.39,0,0,0,1.18.29,2.41,2.41,0,0,0,1.56-.47,1.53,1.53,0,0,0,.58-1.25,1.28,1.28,0,0,0-.33-.88,2.59,2.59,0,0,0-1.07-.65l-.91-.33-.84-.33a2.54,2.54,0,0,1-1.18-.94,2.34,2.34,0,0,1-.4-1.3,2.7,2.7,0,0,1,.29-1.22,3.25,3.25,0,0,1,.83-1,4.08,4.08,0,0,1,1.32-.72,5.22,5.22,0,0,1,1.72-.27,5.4,5.4,0,0,1,1.55.23,5.49,5.49,0,0,1,1.13.44l.5-.4H18l-.7,3.26h-.58a6.87,6.87,0,0,0-.25-1.08,3.32,3.32,0,0,0-.46-.91,2.13,2.13,0,0,0-.7-.62,2.3,2.3,0,0,0-2.38.23,1.44,1.44,0,0,0-.55,1.15,1.23,1.23,0,0,0,.33.85,2.67,2.67,0,0,0,1,.63l.88.32.88.34a3,3,0,0,1,1.23.88,2,2,0,0,1,.45,1.32,2.9,2.9,0,0,1-.33,1.36,3.3,3.3,0,0,1-.92,1.09,4.59,4.59,0,0,1-1.46.75A6.17,6.17,0,0,1,12.63,26.74Z"/><path d="M20.5,26.65a2,2,0,0,1-1.29-.39,1.23,1.23,0,0,1-.49-1,3.13,3.13,0,0,1,0-.47q0-.22.11-.57l.83-3.58H18.47l.16-.69h1.26l.49-2h2.18l-.47,2h1.83l-.16.69H21.93l-.82,3.58c0,.13-.06.28-.09.46A2.8,2.8,0,0,0,21,25a.6.6,0,0,0,.21.53,1.13,1.13,0,0,0,.65.15,2.88,2.88,0,0,0,.58-.08,4.56,4.56,0,0,0,.51-.13l-.15.61a7.26,7.26,0,0,1-1.19.41A4.55,4.55,0,0,1,20.5,26.65Z"/><path d="M31,21a2,2,0,0,1-.09.59,1.33,1.33,0,0,1-.26.48,1.38,1.38,0,0,1-.41.34,1.34,1.34,0,0,1-.61.11,1.18,1.18,0,0,1-.79-.25.73.73,0,0,1-.29-.56,1.32,1.32,0,0,1,.08-.5l.27-.63a3,3,0,0,0-.78.46,5.2,5.2,0,0,0-.62.62l-1.06,4.77H24.17l.93-4.14.1-.49a2.57,2.57,0,0,0,.06-.5.72.72,0,0,0-.15-.53.87.87,0,0,0-.58-.14,1.54,1.54,0,0,0-.44.07l-.39.13.15-.61q.54-.22,1-.38a3.11,3.11,0,0,1,.94-.16A1.89,1.89,0,0,1,27,20a1.5,1.5,0,0,1,.52.88h0a5.87,5.87,0,0,1,1.13-1,1.9,1.9,0,0,1,1-.28,1.17,1.17,0,0,1,.9.36A1.49,1.49,0,0,1,31,21Z"/><path d="M34.54,26.69a4.2,4.2,0,0,1-1.42-.22,2.71,2.71,0,0,1-1-.61,2.52,2.52,0,0,1-.59-.91,3.23,3.23,0,0,1-.2-1.14,4.14,4.14,0,0,1,.3-1.54,4,4,0,0,1,.88-1.35,4.14,4.14,0,0,1,1.4-.93,4.79,4.79,0,0,1,1.87-.36,3.56,3.56,0,0,1,1.83.38,1.26,1.26,0,0,1,.63,1.15,1.69,1.69,0,0,1-.55,1.26,3.34,3.34,0,0,1-1.48.78,11.73,11.73,0,0,1-1.26.32q-.52.1-1.28.17a5,5,0,0,0,.08.67A2.27,2.27,0,0,0,34,25a1.22,1.22,0,0,0,.46.48,1.44,1.44,0,0,0,.75.18,2.76,2.76,0,0,0,1.35-.31,3.46,3.46,0,0,0,1.06-1l.49.41a4.49,4.49,0,0,1-1.55,1.38A4.1,4.1,0,0,1,34.54,26.69Zm1.52-5.33a1.56,1.56,0,0,0-.21-.88.66.66,0,0,0-.58-.31q-.52,0-1,.85a5.59,5.59,0,0,0-.59,2.14l.79-.12a2.89,2.89,0,0,0,.62-.17,1.58,1.58,0,0,0,.73-.57A1.71,1.71,0,0,0,36.06,21.36Z"/><path d="M42.22,26.69a4.2,4.2,0,0,1-1.42-.22,2.72,2.72,0,0,1-1-.61,2.53,2.53,0,0,1-.58-.91,3.21,3.21,0,0,1-.2-1.14,4.15,4.15,0,0,1,.3-1.54,4,4,0,0,1,.88-1.35A4.16,4.16,0,0,1,41.6,20a4.79,4.79,0,0,1,1.87-.36A3.56,3.56,0,0,1,45.3,20a1.26,1.26,0,0,1,.63,1.15,1.7,1.7,0,0,1-.54,1.26,3.34,3.34,0,0,1-1.48.78,11.67,11.67,0,0,1-1.26.32q-.52.1-1.28.17a5,5,0,0,0,.08.67,2.27,2.27,0,0,0,.2.63,1.23,1.23,0,0,0,.46.48,1.44,1.44,0,0,0,.75.18,2.76,2.76,0,0,0,1.35-.31,3.48,3.48,0,0,0,1.06-1l.49.41a4.5,4.5,0,0,1-1.55,1.38A4.11,4.11,0,0,1,42.22,26.69Zm1.52-5.33a1.55,1.55,0,0,0-.21-.88.66.66,0,0,0-.58-.31q-.52,0-1,.85a5.61,5.61,0,0,0-.59,2.14l.79-.12a2.9,2.9,0,0,0,.62-.17,1.58,1.58,0,0,0,.73-.57A1.71,1.71,0,0,0,43.74,21.36Z"/><path d="M49,26.65a2,2,0,0,1-1.29-.39,1.23,1.23,0,0,1-.49-1,3.13,3.13,0,0,1,0-.47q0-.22.11-.57l.83-3.58H46.94l.16-.69h1.26l.49-2H51l-.47,2h1.83l-.16.69H50.4l-.82,3.58c0,.13-.06.28-.09.46a2.8,2.8,0,0,0,0,.35.6.6,0,0,0,.21.53,1.13,1.13,0,0,0,.65.15,2.88,2.88,0,0,0,.58-.08,4.56,4.56,0,0,0,.51-.13l-.15.61a7.26,7.26,0,0,1-1.19.41A4.55,4.55,0,0,1,49,26.65Z"/><path d="M19.07,35.47A2.9,2.9,0,0,1,18.69,37a3.16,3.16,0,0,1-1.09,1.1,5.41,5.41,0,0,1-1.58.64,8.23,8.23,0,0,1-1.92.21h-1l-.6,2.59c0,.08,0,.15,0,.21a1,1,0,0,0,0,.16.48.48,0,0,0,.25.44,2.86,2.86,0,0,0,1,.22l-.11.49H8.39l.11-.49.5-.05a2.89,2.89,0,0,0,.5-.1.83.83,0,0,0,.4-.26,1,1,0,0,0,.19-.41L11.63,35c0-.09,0-.17,0-.24a1.13,1.13,0,0,0,0-.14.49.49,0,0,0-.29-.44,2.94,2.94,0,0,0-.93-.25l.11-.49h5.18a5,5,0,0,1,2.49.49A1.65,1.65,0,0,1,19.07,35.47Zm-2.81,1.13a3.92,3.92,0,0,0,.15-1.1A1.41,1.41,0,0,0,16,34.4,1.84,1.84,0,0,0,14.74,34h-.49l-1,4.26h.44A3.21,3.21,0,0,0,15,38.08a2.15,2.15,0,0,0,.84-.61A2.46,2.46,0,0,0,16.26,36.59Z"/><path d="M23.29,42.05l-.15.61-1.06.4a2.81,2.81,0,0,1-.92.14,1.84,1.84,0,0,1-1.26-.39,1.27,1.27,0,0,1-.45-1,3.55,3.55,0,0,1,0-.48c0-.16.06-.35.11-.56l.56-2q.07-.28.13-.54a2.34,2.34,0,0,0,.05-.46.71.71,0,0,0-.16-.52.88.88,0,0,0-.59-.15,1.55,1.55,0,0,0-.44.07l-.39.13.15-.61q.54-.22,1-.38a3.13,3.13,0,0,1,.94-.16,1.8,1.8,0,0,1,1.24.39,1.29,1.29,0,0,1,.43,1c0,.08,0,.24,0,.45a3.08,3.08,0,0,1-.11.59l-.55,2a5.51,5.51,0,0,0-.12.54,2.86,2.86,0,0,0-.05.46.66.66,0,0,0,.17.53,1,1,0,0,0,.61.14,1.74,1.74,0,0,0,.46-.07A2.61,2.61,0,0,0,23.29,42.05Zm.14-8.22a1.15,1.15,0,0,1-.39.87,1.32,1.32,0,0,1-.93.36,1.33,1.33,0,0,1-.94-.36,1.17,1.17,0,0,1,0-1.75,1.33,1.33,0,0,1,.94-.36A1.31,1.31,0,0,1,23,33,1.16,1.16,0,0,1,23.43,33.83Z"/><path d="M31,37.58a2,2,0,0,1-.09.59,1.34,1.34,0,0,1-.26.48,1.4,1.4,0,0,1-.41.34,1.34,1.34,0,0,1-.61.11,1.18,1.18,0,0,1-.79-.25.73.73,0,0,1-.29-.56,1.34,1.34,0,0,1,.08-.5l.27-.63a3,3,0,0,0-.78.46,5.28,5.28,0,0,0-.62.62L26.42,43H24.19l.93-4.14.1-.49a2.51,2.51,0,0,0,.06-.5.72.72,0,0,0-.15-.53.87.87,0,0,0-.58-.14,1.53,1.53,0,0,0-.44.07l-.39.13.15-.61q.54-.22,1-.38a3.11,3.11,0,0,1,.94-.16,1.89,1.89,0,0,1,1.19.31,1.51,1.51,0,0,1,.52.88h0a5.81,5.81,0,0,1,1.13-1,1.9,1.9,0,0,1,1-.28,1.16,1.16,0,0,1,.9.36A1.48,1.48,0,0,1,31,37.58Z"/><path d="M36,42.17H36l-.45.37a3.38,3.38,0,0,1-.54.33,3.51,3.51,0,0,1-.6.24,2.34,2.34,0,0,1-.69.1,2.2,2.2,0,0,1-1.76-.69,2.8,2.8,0,0,1-.59-1.89,4.51,4.51,0,0,1,.33-1.73,4.82,4.82,0,0,1,.88-1.42,4.21,4.21,0,0,1,1.31-1,3.65,3.65,0,0,1,1.58-.35,3.57,3.57,0,0,1,1.06.14,2.12,2.12,0,0,1,.74.38l2.07-.42.09.11-1,4.14q-.05.21-.11.52a2.67,2.67,0,0,0-.06.47.66.66,0,0,0,.17.53,1,1,0,0,0,.61.15,1.77,1.77,0,0,0,.46-.07l.37-.12-.15.61-1.07.4a2.84,2.84,0,0,1-.92.14,2,2,0,0,1-1.11-.27A1.44,1.44,0,0,1,36,42.17Zm.8-4.27a1.86,1.86,0,0,0,0-.35.89.89,0,0,0-.14-.34.78.78,0,0,0-.32-.27,1.15,1.15,0,0,0-.48-.09,1.23,1.23,0,0,0-.82.32,3,3,0,0,0-.66.85,4.89,4.89,0,0,0-.45,1.22,6.28,6.28,0,0,0-.16,1.42,3.51,3.51,0,0,0,0,.61,1.43,1.43,0,0,0,.17.48.84.84,0,0,0,.33.32,1.06,1.06,0,0,0,.52.11,1.13,1.13,0,0,0,.61-.19,2.75,2.75,0,0,0,.54-.45Z"/><path d="M43.74,43.24a3.49,3.49,0,0,1-2.41-.77,2.71,2.71,0,0,1-.87-2.13,4.34,4.34,0,0,1,.28-1.54,3.93,3.93,0,0,1,.85-1.33A4,4,0,0,1,43,36.54a4.71,4.71,0,0,1,1.87-.36,3.17,3.17,0,0,1,1.82.44,1.39,1.39,0,0,1,.63,1.21,1.85,1.85,0,0,1-.07.46,1.21,1.21,0,0,1-.2.43,1.31,1.31,0,0,1-.37.33,1.23,1.23,0,0,1-.6.11,1.19,1.19,0,0,1-.82-.26.73.73,0,0,1-.29-.54,1.67,1.67,0,0,1,.14-.67,6,6,0,0,1,.36-.69.93.93,0,0,0-.25-.18,1,1,0,0,0-.48-.11,1.51,1.51,0,0,0-1.31,1A4.88,4.88,0,0,0,42.88,40a2.78,2.78,0,0,0,.39,1.62,1.29,1.29,0,0,0,1.12.55,2.44,2.44,0,0,0,1.24-.29,3.61,3.61,0,0,0,1-1l.48.41a4.15,4.15,0,0,1-1.46,1.37A3.81,3.81,0,0,1,43.74,43.24Z"/><path d="M52.78,41.94h0a5.13,5.13,0,0,1-1.4,1,3.61,3.61,0,0,1-1.41.27,1.56,1.56,0,0,1-1.16-.42,1.37,1.37,0,0,1-.41-1,3.91,3.91,0,0,1,0-.42,4.62,4.62,0,0,1,.13-.61L49,38.88q0-.19.11-.51a2.85,2.85,0,0,0,.06-.48.72.72,0,0,0-.15-.53.87.87,0,0,0-.59-.14,1.54,1.54,0,0,0-.44.07l-.39.13.15-.61q.55-.22,1-.38a3.12,3.12,0,0,1,.94-.16,1.76,1.76,0,0,1,1.24.4,1.3,1.3,0,0,1,.43,1c0,.08,0,.23,0,.45a3,3,0,0,1-.11.6l-.49,1.75a4.08,4.08,0,0,0-.11.51,3.08,3.08,0,0,0,0,.39.73.73,0,0,0,.16.51.69.69,0,0,0,.52.17,1.76,1.76,0,0,0,.75-.23,3.22,3.22,0,0,0,.83-.61l1-4.83,2.13-.09.09.11L55,41.87a6.64,6.64,0,0,1-.75,2,4.35,4.35,0,0,1-1.12,1.27,4.06,4.06,0,0,1-1.33.65,5.34,5.34,0,0,1-1.45.2A6.27,6.27,0,0,1,49,45.89a2.31,2.31,0,0,1-.82-.33,1,1,0,0,1-.37-.42,1.17,1.17,0,0,1-.1-.46A1,1,0,0,1,48,44a1,1,0,0,1,.75-.3,1.12,1.12,0,0,1,.65.2,2.21,2.21,0,0,1,.5.47,3.55,3.55,0,0,1,.37.58q.16.32.25.52l.3-.08a1.38,1.38,0,0,0,.3-.14l.31-.23a2.11,2.11,0,0,0,.31-.35,4.82,4.82,0,0,0,.6-1.12A9.25,9.25,0,0,0,52.78,41.94Z"/></svg>