<svg id="Calque_1" data-name="Calque 1" xmlns="http://www.w3.org/2000/svg" viewBox="0 0 64 64"><title>transworld</title><polyline points="26.32 31.58 27.92 31.58 27.92 30.38 26.32 30.38 26.32 28.07 27.98 28.07 27.98 26.84 24.95 26.84 24.95 35.99 28.01 35.99 28.01 34.75 26.32 34.75 26.32 31.58"/><polyline points="20.76 28.07 21.96 28.07 21.96 35.99 23.33 35.99 23.33 28.07 24.52 28.07 24.52 26.84 20.76 26.84 20.76 28.07"/><path d="M20.11,26.83H18.05L17,36h1.24l.3-2.48h1L19.77,36h1.38l-1-9.15m-1.43,5.48L19,28.51h.09l.28,3.81Z"/><polyline points="16.75 26.84 15.42 26.84 14.38 30.96 14.34 30.96 14.34 26.84 12.97 26.84 12.97 35.99 14.34 35.99 14.34 31.35 14.38 31.35 15.34 35.99 16.75 35.99 15.71 31.01 16.75 26.84"/><path d="M12.39,28.2v1.93H11V28.31c0-.46-.14-.57-.41-.57s-.43.1-.43.57v1.13c0,.66,2.21,2.64,2.21,3.56v1.62c0,1.2-.94,1.54-1.8,1.54s-1.78-.35-1.78-1.54V32.52h1.37v2c0,.46.14.57.43.57s.41-.1.41-.57v-1c0-1.28-2.21-2.55-2.21-4V28.2c0-1.2.94-1.54,1.78-1.54s1.8.35,1.8,1.54"/><path d="M53.76,28.63v.44a1.3,1.3,0,0,0-.91-.53.87.87,0,0,0-.93,1v4.42a.95.95,0,0,0,1.79.48h0v1.38c0,.39-.14.45-.3.45s-.3-.06-.3-.45v-.55H51.92v.66c0,.76.6,1.23,1.54,1.23S55,36.67,55,35.91V28.63H53.76m0,4.78c0,.39-.14.45-.3.45s-.3-.06-.3-.45V30c0-.39.14-.45.3-.45s.3.06.3.45Z"/><path d="M50.44,28.54a1,1,0,0,0-.85.52h0v-.43H48.32V36h1.24V30c0-.21,0-.45.32-.45s.27.24.27.45V36H51.4V29.86c0-.77,0-1.33-1-1.33"/><rect x="46.52" y="28.63" width="1.24" height="7.36"/><path d="M44.71,26.84v2.26h0a1.1,1.1,0,0,0-.89-.55.83.83,0,0,0-.92.86v5.81a.83.83,0,0,0,.92.86,1.16,1.16,0,0,0,.89-.53h0V36H46V26.84H44.71m0,7.74c0,.39-.14.45-.3.45s-.3-.07-.3-.45V30c0-.39.14-.45.3-.45s.3.06.3.45Z"/><path d="M41.4,28.54a1,1,0,0,0-.85.52h0v-.43H39.28V36h1.24V30c0-.21,0-.45.32-.45s.27.24.27.45v2.43h1.24V29.94c0-.77,0-1.4-1-1.4"/><path d="M37.22,28.54c-.94,0-1.54.48-1.54,1.24v1.48h1.25v-1c0-.26-.06-.85.3-.85s.25.51.25.73c0,1.88-1.8,1.09-1.8,2.59v2.47a.76.76,0,0,0,.84.85,1,1,0,0,0,1-.59h0a1.11,1.11,0,0,0,.08.5h1.16V29.77c0-.76-.6-1.24-1.54-1.24m.3,6.19a.31.31,0,0,1-.3.3.27.27,0,0,1-.3-.25V32.93c0-.39.25-.54.6-.75Z"/><path d="M33.61,28.54c-.94,0-1.54.48-1.54,1.24v5.07c0,.76.59,1.23,1.54,1.23s1.54-.48,1.54-1.23V29.77c0-.76-.59-1.24-1.54-1.24m.3,6.28c0,.33-.12.36-.3.36s-.3,0-.3-.36v-5c0-.33.12-.36.3-.36s.3,0,.3.36Z"/><path d="M30.62,28.54a1.1,1.1,0,0,0-.89.55h0V26.83H28.45V36H29.7v-.44h0a1.16,1.16,0,0,0,.89.53.83.83,0,0,0,.92-.86V29.4a.83.83,0,0,0-.92-.86m-.32,6c0,.39-.14.45-.3.45s-.3-.07-.3-.45V30c0-.39.14-.45.3-.45s.3.06.3.45Z"/><rect x="46.52" y="26.84" width="1.24" height="1.24"/><polyline points="31.18 27.09 31.18 28.07 30.88 28.07 30.88 27.09 30.52 27.09 30.52 26.83 31.53 26.83 31.53 27.09 31.18 27.09"/><path d="M32.48,28.07l-.27-.49h-.1v.49h-.29V26.83h.47c.24,0,.47.09.47.37a.34.34,0,0,1-.26.33l.33.53h-.35m-.21-1H32.1v.29h.14c.1,0,.22,0,.22-.15S32.35,27.07,32.26,27.07Z"/><path d="M34,28.07l-.1-.24h-.48l-.09.24H33l.52-1.23h.29l.52,1.23H34m-.33-.9-.16.42h.31Z"/><polyline points="35.3 28.07 34.8 27.26 34.8 27.26 34.81 28.07 34.52 28.07 34.52 26.83 34.86 26.83 35.35 27.64 35.36 27.64 35.35 26.83 35.64 26.83 35.64 28.07 35.3 28.07"/><path d="M36.62,27.16A.3.3,0,0,0,36.4,27c-.08,0-.17,0-.17.12s.07.11.19.14.38.13.38.37a.42.42,0,0,1-.47.41.66.66,0,0,1-.47-.18l.2-.2a.37.37,0,0,0,.27.13c.09,0,.17,0,.17-.13s-.09-.12-.26-.18-.32-.13-.32-.35.25-.39.48-.39a.62.62,0,0,1,.41.15l-.19.2"/><polyline points="38.46 28.07 38.16 28.07 37.92 27.23 37.91 27.23 37.67 28.07 37.37 28.07 37.02 26.83 37.34 26.83 37.54 27.66 37.54 27.66 37.76 26.83 38.08 26.83 38.3 27.66 38.3 27.66 38.5 26.83 38.81 26.83 38.46 28.07"/><path d="M39.6,28.1a.64.64,0,0,1-.68-.66.68.68,0,0,1,1.35,0,.64.64,0,0,1-.68.66m0-1a.38.38,0,0,0,0,.76.38.38,0,0,0,0-.76Z"/><path d="M41.19,28.07l-.27-.49h-.1v.49h-.29V26.83H41c.24,0,.48.09.48.37a.34.34,0,0,1-.26.33l.32.53h-.35m-.21-1h-.16v.29H41c.1,0,.22,0,.22-.15S41.06,27.07,41,27.07Z"/><polyline points="41.76 28.07 41.76 26.83 42.06 26.83 42.06 27.81 42.55 27.81 42.55 28.07 41.76 28.07"/><path d="M43.3,28.07h-.46V26.83h.45c.35,0,.71.15.71.61a.63.63,0,0,1-.7.62m0-1h-.15v.72h.14c.21,0,.41-.09.41-.36S43.48,27.09,43.28,27.09Z"/></svg>