<svg width="48" height="48" viewBox="0 0 48 48" fill="none" xmlns="http://www.w3.org/2000/svg">
<g clip-path="url(#clip0)">
<g filter="url(#filter0_d)">
<path d="M32.3 23.5599V23.1999L34.44 21.0899C34.8909 20.6436 35.2022 20.0757 35.336 19.4554C35.4698 18.8352 35.4202 18.1895 35.1934 17.5969C34.9665 17.0044 34.5722 16.4906 34.0585 16.1183C33.5447 15.7459 32.9337 15.5311 32.3 15.4999V15.1499L34.41 12.9999C34.8676 12.5414 35.1788 11.9573 35.3039 11.3217C35.4291 10.6861 35.3627 10.0277 35.1131 9.42991C34.8634 8.83213 34.4419 8.32195 33.9019 7.96411C33.3619 7.60626 32.7278 7.41686 32.08 7.41995H31.75C31.4382 6.95014 31.0145 6.56524 30.517 6.2999C30.0195 6.03457 29.4638 5.89712 28.9 5.89994H19.08C18.5108 5.89979 17.9507 6.04254 17.451 6.3151C16.9513 6.58766 16.528 6.98131 16.22 7.45994H15.82C15.1812 7.4665 14.5582 7.66005 14.0282 8.01667C13.4981 8.3733 13.0841 8.87739 12.8373 9.46667C12.5906 10.056 12.5218 10.7046 12.6396 11.3325C12.7573 11.9605 13.0565 12.5401 13.5 12.9999L15.61 15.1099V15.4599C14.9741 15.4837 14.3589 15.6925 13.84 16.0608C13.321 16.429 12.9207 16.9406 12.6882 17.533C12.4557 18.1253 12.4012 18.7727 12.5311 19.3956C12.6611 20.0185 12.97 20.59 13.42 21.0399L15.53 23.1499V23.4999C14.8941 23.5237 14.2789 23.7325 13.76 24.1008C13.241 24.469 12.8407 24.9806 12.6082 25.573C12.3757 26.1653 12.3212 26.8127 12.4511 27.4356C12.5811 28.0585 12.89 28.63 13.34 29.0799L15.45 31.1899V33.4899C15.45 34.3917 15.8082 35.2565 16.4458 35.8941C17.0835 36.5317 17.9483 36.8899 18.85 36.8899H20V41.1899C20 41.9856 20.3161 42.7487 20.8787 43.3113C21.4413 43.8739 22.2043 44.1899 23 44.1899H24.87C25.6656 44.1899 26.4287 43.8739 26.9913 43.3113C27.5539 42.7487 27.87 41.9856 27.87 41.1899V36.8899H28.75C29.6517 36.8899 30.5165 36.5317 31.1542 35.8941C31.7918 35.2565 32.15 34.3917 32.15 33.4899V31.1899L34.27 29.0799C34.7005 28.6441 35.0003 28.0965 35.1355 27.499C35.2707 26.9015 35.2359 26.2781 35.035 25.6994C34.8341 25.1207 34.4752 24.6098 33.9989 24.2246C33.5226 23.8394 32.9479 23.5953 32.34 23.5199L32.3 23.5599Z" fill="#EBEBEB"/>
<path d="M31.9 25.5399H30.3V22.3699L33 19.6599C33.179 19.4817 33.3009 19.2541 33.3499 19.0063C33.3989 18.7585 33.3729 18.5017 33.2752 18.2687C33.1775 18.0357 33.0126 17.8372 32.8014 17.6984C32.5903 17.5597 32.3426 17.4871 32.09 17.4899H30.3V14.3199L33 11.6199C33.179 11.4417 33.3009 11.2141 33.3499 10.9663C33.3989 10.7185 33.3729 10.4617 33.2752 10.2287C33.1775 9.99571 33.0126 9.79717 32.8014 9.65845C32.5903 9.51972 32.3426 9.44711 32.09 9.4499H30.3V9.2999C30.3 8.9286 30.1525 8.5725 29.8899 8.30995C29.6274 8.0474 29.2713 7.8999 28.9 7.8999H19.08C18.7087 7.8999 18.3526 8.0474 18.09 8.30995C17.8275 8.5725 17.68 8.9286 17.68 9.2999V9.4599H15.82C15.567 9.45907 15.3195 9.53382 15.1093 9.67457C14.899 9.81532 14.7356 10.0157 14.64 10.2499C14.5427 10.4807 14.5165 10.7353 14.5646 10.9811C14.6127 11.2269 14.7329 11.4528 14.91 11.6299L17.61 14.3299V17.4999H15.75C15.4974 17.4971 15.2497 17.5697 15.0386 17.7084C14.8274 17.8472 14.6625 18.0457 14.5648 18.2787C14.4671 18.5117 14.4411 18.7685 14.4901 19.0163C14.5391 19.2641 14.661 19.4917 14.84 19.6699L17.54 22.3699V25.5399H15.68C15.4274 25.5371 15.1797 25.6097 14.9686 25.7484C14.7574 25.8872 14.5925 26.0857 14.4948 26.3187C14.3971 26.5517 14.3711 26.8085 14.4201 27.0563C14.4691 27.3041 14.591 27.5317 14.77 27.7099L17.47 30.4099V33.5399C17.47 33.9112 17.6175 34.2673 17.88 34.5299C18.1426 34.7924 18.4987 34.9399 18.87 34.9399H22V41.2399C22 41.5051 22.1054 41.7595 22.2929 41.947C22.4804 42.1345 22.7348 42.2399 23 42.2399H24.87C25.1352 42.2399 25.3896 42.1345 25.5771 41.947C25.7646 41.7595 25.87 41.5051 25.87 41.2399V34.9399H28.75C29.1213 34.9399 29.4774 34.7924 29.7399 34.5299C30.0025 34.2673 30.15 33.9112 30.15 33.5399V30.4099L32.85 27.7099C33.0242 27.5299 33.1417 27.3027 33.188 27.0565C33.2343 26.8103 33.2074 26.5559 33.1105 26.3249C33.0136 26.0938 32.8511 25.8963 32.643 25.7568C32.4349 25.6173 32.1905 25.5418 31.94 25.5399H31.9ZM23.9 31.9999C23.4055 31.9999 22.9222 31.8533 22.5111 31.5786C22.0999 31.3039 21.7795 30.9134 21.5903 30.4566C21.4011 29.9998 21.3516 29.4971 21.448 29.0122C21.5445 28.5272 21.7826 28.0818 22.1322 27.7321C22.4819 27.3825 22.9273 27.1444 23.4123 27.0479C23.8972 26.9515 24.3999 27.001 24.8567 27.1902C25.3135 27.3794 25.704 27.6999 25.9787 28.111C26.2534 28.5221 26.4 29.0054 26.4 29.4999C26.4013 29.8286 26.3376 30.1543 26.2124 30.4582C26.0872 30.7621 25.9031 31.0382 25.6707 31.2706C25.4383 31.503 25.1622 31.6871 24.8583 31.8123C24.5544 31.9375 24.2287 32.0012 23.9 31.9999V31.9999ZM23.9 23.8899C23.4055 23.8899 22.9222 23.7433 22.5111 23.4686C22.0999 23.1939 21.7795 22.8034 21.5903 22.3466C21.4011 21.8898 21.3516 21.3871 21.448 20.9022C21.5445 20.4172 21.7826 19.9718 22.1322 19.6221C22.4819 19.2725 22.9273 19.0344 23.4123 18.9379C23.8972 18.8415 24.3999 18.891 24.8567 19.0802C25.3135 19.2694 25.704 19.5899 25.9787 20.001C26.2534 20.4121 26.4 20.8954 26.4 21.3899C26.4053 21.7211 26.3445 22.05 26.2211 22.3574C26.0978 22.6648 25.9143 22.9445 25.6815 23.1801C25.4487 23.4157 25.1712 23.6025 24.8653 23.7295C24.5594 23.8566 24.2312 23.9213 23.9 23.9199V23.8899ZM23.9 15.7799C23.4055 15.7799 22.9222 15.6333 22.5111 15.3586C22.0999 15.0839 21.7795 14.6934 21.5903 14.2366C21.4011 13.7798 21.3516 13.2771 21.448 12.7922C21.5445 12.3072 21.7826 11.8618 22.1322 11.5121C22.4819 11.1625 22.9273 10.9244 23.4123 10.8279C23.8972 10.7315 24.3999 10.781 24.8567 10.9702C25.3135 11.1594 25.704 11.4799 25.9787 11.891C26.2534 12.3021 26.4 12.7854 26.4 13.2799C26.404 13.6103 26.3422 13.9381 26.2182 14.2443C26.0942 14.5506 25.9106 14.8291 25.6779 15.0636C25.4452 15.2981 25.1682 15.484 24.8629 15.6104C24.5577 15.7368 24.2304 15.8013 23.9 15.7999V15.7799Z" fill="url(#paint0_linear)"/>
<path d="M28.9 8.89987C29.0061 8.89987 29.1078 8.94202 29.1828 9.01703C29.2579 9.09205 29.3 9.19379 29.3 9.29987V9.45987C29.3 9.72509 29.4054 9.97944 29.5929 10.167C29.7804 10.3545 30.0348 10.4599 30.3 10.4599H32.09C32.1456 10.458 32.2004 10.4733 32.2469 10.5037C32.2934 10.5342 32.3294 10.5782 32.35 10.6299C32.3719 10.6776 32.3789 10.7309 32.37 10.7826C32.361 10.8344 32.3367 10.8822 32.3 10.9199L29.6 13.6199C29.5073 13.7133 29.434 13.8241 29.3842 13.946C29.3345 14.0678 29.3092 14.1983 29.31 14.3299V17.4999C29.31 17.7651 29.4154 18.0194 29.6029 18.207C29.7904 18.3945 30.0448 18.4999 30.31 18.4999H32.13C32.1856 18.498 32.2404 18.5133 32.2869 18.5437C32.3334 18.5742 32.3694 18.6182 32.39 18.6699C32.4188 18.7127 32.4342 18.7632 32.4342 18.8149C32.4342 18.8665 32.4188 18.917 32.39 18.9599L29.65 21.6599C29.5555 21.7525 29.4803 21.8629 29.4288 21.9848C29.3773 22.1067 29.3505 22.2376 29.35 22.3699V25.5399C29.35 25.8051 29.4554 26.0594 29.6429 26.247C29.8304 26.4345 30.0848 26.5399 30.35 26.5399H31.9C31.9556 26.538 32.0104 26.5533 32.0569 26.5837C32.1034 26.6142 32.1394 26.6582 32.16 26.7099C32.1819 26.7576 32.1889 26.8109 32.18 26.8626C32.171 26.9144 32.1467 26.9622 32.11 26.9999L29.41 29.6999C29.3173 29.7933 29.244 29.9041 29.1942 30.026C29.1445 30.1478 29.1192 30.2783 29.12 30.4099V33.5399C29.12 33.646 29.0779 33.7477 29.0028 33.8227C28.9278 33.8977 28.8261 33.9399 28.72 33.9399H25.84C25.5748 33.9399 25.3204 34.0452 25.1329 34.2328C24.9454 34.4203 24.84 34.6747 24.84 34.9399V41.2399H23V34.9399C23 34.6747 22.8946 34.4203 22.7071 34.2328C22.5196 34.0452 22.2652 33.9399 22 33.9399H18.9C18.7939 33.9399 18.6922 33.8977 18.6172 33.8227C18.5421 33.7477 18.5 33.646 18.5 33.5399V30.4099C18.5008 30.2783 18.4755 30.1478 18.4258 30.026C18.376 29.9041 18.3027 29.7933 18.21 29.6999L15.47 26.9999C15.4333 26.9622 15.4089 26.9144 15.4 26.8626C15.3911 26.8109 15.3981 26.7576 15.42 26.7099C15.4406 26.6582 15.4766 26.6142 15.5231 26.5837C15.5696 26.5533 15.6244 26.538 15.68 26.5399H17.54C17.8052 26.5399 18.0596 26.4345 18.2471 26.247C18.4346 26.0594 18.54 25.8051 18.54 25.5399V22.3699C18.5408 22.2383 18.5155 22.1078 18.4658 21.986C18.416 21.8641 18.3427 21.7533 18.25 21.6599L15.55 18.9999C15.5133 18.9622 15.4889 18.9144 15.48 18.8626C15.4711 18.8109 15.4781 18.7576 15.5 18.7099C15.5206 18.6582 15.5566 18.6142 15.6031 18.5837C15.6496 18.5533 15.7044 18.538 15.76 18.5399H17.62C17.8852 18.5399 18.1396 18.4345 18.3271 18.247C18.5146 18.0594 18.62 17.8051 18.62 17.5399V14.3199C18.6208 14.1883 18.5955 14.0578 18.5458 13.936C18.496 13.8141 18.4227 13.7033 18.33 13.6099L15.63 10.9099C15.5933 10.8722 15.5689 10.8244 15.56 10.7726C15.5511 10.7209 15.5581 10.6676 15.58 10.6199C15.6006 10.5682 15.6366 10.5242 15.6831 10.4937C15.7296 10.4633 15.7844 10.448 15.84 10.4499H17.7C17.9652 10.4499 18.2196 10.3445 18.4071 10.157C18.5946 9.96944 18.7 9.71509 18.7 9.44987V9.29987C18.7 9.19379 18.7421 9.09205 18.8172 9.01703C18.8922 8.94202 18.9939 8.89987 19.1 8.89987H28.9ZM23.9 16.7999C24.5922 16.7999 25.2689 16.5946 25.8445 16.21C26.4201 15.8254 26.8687 15.2788 27.1336 14.6393C27.3985 13.9997 27.4678 13.296 27.3327 12.6171C27.1977 11.9381 26.8644 11.3145 26.3749 10.825C25.8854 10.3355 25.2617 10.0022 24.5828 9.86712C23.9039 9.73208 23.2001 9.80139 22.5606 10.0663C21.9211 10.3312 21.3744 10.7798 20.9899 11.3554C20.6053 11.9309 20.4 12.6076 20.4 13.2999C20.4 14.2281 20.7687 15.1184 21.4251 15.7747C22.0815 16.4311 22.9717 16.7999 23.9 16.7999ZM23.9 24.9099C24.5922 24.9099 25.2689 24.7046 25.8445 24.32C26.4201 23.9354 26.8687 23.3888 27.1336 22.7493C27.3985 22.1097 27.4678 21.406 27.3327 20.7271C27.1977 20.0481 26.8644 19.4245 26.3749 18.935C25.8854 18.4455 25.2617 18.1122 24.5828 17.9771C23.9039 17.8421 23.2001 17.9114 22.5606 18.1763C21.9211 18.4412 21.3744 18.8898 20.9899 19.4654C20.6053 20.0409 20.4 20.7176 20.4 21.4099C20.4 22.3381 20.7687 23.2284 21.4251 23.8847C22.0815 24.5411 22.9717 24.9099 23.9 24.9099ZM23.9 33.0199C24.5922 33.0199 25.2689 32.8146 25.8445 32.43C26.4201 32.0454 26.8687 31.4988 27.1336 30.8593C27.3985 30.2197 27.4678 29.516 27.3327 28.8371C27.1977 28.1581 26.8644 27.5345 26.3749 27.045C25.8854 26.5555 25.2617 26.2222 24.5828 26.0871C23.9039 25.9521 23.2001 26.0214 22.5606 26.2863C21.9211 26.5512 21.3744 26.9998 20.9899 27.5754C20.6053 28.151 20.4 28.8276 20.4 29.5199C20.4053 30.4447 20.7764 31.3298 21.4322 31.9818C22.088 32.6339 22.9752 32.9999 23.9 32.9999V33.0199ZM28.9 7.86987H19.08C18.8961 7.86987 18.7141 7.90609 18.5442 7.97644C18.3744 8.0468 18.22 8.14992 18.09 8.27992C17.96 8.40993 17.8569 8.56426 17.7866 8.73412C17.7162 8.90397 17.68 9.08602 17.68 9.26987V9.42987H15.82C15.567 9.42904 15.3195 9.50379 15.1093 9.64454C14.899 9.78529 14.7356 9.98563 14.64 10.2199C14.5427 10.4507 14.5165 10.7052 14.5646 10.951C14.6127 11.1968 14.7329 11.4227 14.91 11.5999L17.61 14.2999V17.4999H15.75C15.4974 17.4971 15.2497 17.5697 15.0386 17.7084C14.8274 17.8471 14.6625 18.0457 14.5648 18.2787C14.4671 18.5116 14.4411 18.7684 14.4901 19.0163C14.5391 19.2641 14.661 19.4916 14.84 19.6699L17.54 22.3699V25.5399H15.68C15.4274 25.5371 15.1797 25.6097 14.9686 25.7484C14.7574 25.8871 14.5925 26.0857 14.4948 26.3187C14.3971 26.5516 14.3711 26.8084 14.4201 27.0563C14.4691 27.3041 14.591 27.5316 14.77 27.7099L17.47 30.4099V33.5399C17.47 33.9112 17.6175 34.2673 17.88 34.5298C18.1426 34.7924 18.4987 34.9399 18.87 34.9399H22V41.2399C22 41.5051 22.1054 41.7594 22.2929 41.947C22.4804 42.1345 22.7348 42.2399 23 42.2399H24.87C25.1352 42.2399 25.3896 42.1345 25.5771 41.947C25.7646 41.7594 25.87 41.5051 25.87 41.2399V34.9399H28.75C29.1213 34.9399 29.4774 34.7924 29.7399 34.5298C30.0025 34.2673 30.15 33.9112 30.15 33.5399V30.4099L32.85 27.7099C33.0242 27.5298 33.1417 27.3026 33.188 27.0564C33.2343 26.8102 33.2074 26.5559 33.1105 26.3248C33.0136 26.0938 32.8511 25.8963 32.643 25.7568C32.4349 25.6172 32.1905 25.5418 31.94 25.5399H30.3V22.3699L33 19.6599C33.179 19.4816 33.3009 19.2541 33.3499 19.0063C33.3989 18.7584 33.3729 18.5016 33.2752 18.2687C33.1775 18.0357 33.0126 17.8371 32.8014 17.6984C32.5903 17.5597 32.3426 17.4871 32.09 17.4899H30.3V14.3199L33 11.6199C33.179 11.4416 33.3009 11.2141 33.3499 10.9663C33.3989 10.7184 33.3729 10.4616 33.2752 10.2287C33.1775 9.99568 33.0126 9.79714 32.8014 9.65842C32.5903 9.51969 32.3426 9.44708 32.09 9.44987H30.3V9.29987C30.3 8.92857 30.1525 8.57248 29.8899 8.30992C29.6274 8.04737 29.2713 7.89987 28.9 7.89987V7.86987ZM23.9 15.7699C23.4055 15.7699 22.9222 15.6233 22.5111 15.3485C22.0999 15.0738 21.7795 14.6834 21.5903 14.2266C21.4011 13.7698 21.3516 13.2671 21.448 12.7821C21.5445 12.2972 21.7826 11.8517 22.1322 11.5021C22.4819 11.1525 22.9273 10.9144 23.4123 10.8179C23.8972 10.7214 24.3999 10.771 24.8567 10.9602C25.3135 11.1494 25.704 11.4698 25.9787 11.8809C26.2534 12.2921 26.4 12.7754 26.4 13.2699C26.4013 13.5985 26.3376 13.9242 26.2124 14.2281C26.0872 14.5321 25.9031 14.8082 25.6707 15.0406C25.4383 15.273 25.1622 15.4571 24.8583 15.5823C24.5544 15.7074 24.2287 15.7712 23.9 15.7699ZM23.9 23.8799C23.4055 23.8799 22.9222 23.7333 22.5111 23.4585C22.0999 23.1838 21.7795 22.7934 21.5903 22.3366C21.4011 21.8798 21.3516 21.3771 21.448 20.8921C21.5445 20.4072 21.7826 19.9617 22.1322 19.6121C22.4819 19.2625 22.9273 19.0244 23.4123 18.9279C23.8972 18.8314 24.3999 18.881 24.8567 19.0702C25.3135 19.2594 25.704 19.5798 25.9787 19.9909C26.2534 20.4021 26.4 20.8854 26.4 21.3799C26.4013 21.7085 26.3376 22.0342 26.2124 22.3381C26.0872 22.6421 25.9031 22.9182 25.6707 23.1506C25.4383 23.383 25.1622 23.5671 24.8583 23.6923C24.5544 23.8174 24.2287 23.8812 23.9 23.8799ZM23.9 31.9899C23.4055 31.9899 22.9222 31.8432 22.5111 31.5685C22.0999 31.2938 21.7795 30.9034 21.5903 30.4466C21.4011 29.9898 21.3516 29.4871 21.448 29.0021C21.5445 28.5172 21.7826 28.0717 22.1322 27.7221C22.4819 27.3725 22.9273 27.1344 23.4123 27.0379C23.8972 26.9414 24.3999 26.991 24.8567 27.1802C25.3135 27.3694 25.704 27.6898 25.9787 28.1009C26.2534 28.5121 26.4 28.9954 26.4 29.4899C26.4026 29.8194 26.3399 30.1461 26.2153 30.4512C26.0907 30.7563 25.9068 31.0336 25.6743 31.2671C25.4417 31.5005 25.1652 31.6855 24.8606 31.8113C24.556 31.9371 24.2295 32.0012 23.9 31.9999V31.9899Z" fill="#333333"/>
</g>
</g>
<defs>
<filter id="filter0_d" x="8.38219" y="5.8999" width="31.0273" height="46.29" filterUnits="userSpaceOnUse" color-interpolation-filters="sRGB">
<feFlood flood-opacity="0" result="BackgroundImageFix"/>
<feColorMatrix in="SourceAlpha" type="matrix" values="0 0 0 0 0 0 0 0 0 0 0 0 0 0 0 0 0 0 127 0"/>
<feOffset dy="4"/>
<feGaussianBlur stdDeviation="2"/>
<feColorMatrix type="matrix" values="0 0 0 0 0 0 0 0 0 0 0 0 0 0 0 0 0 0 0.25 0"/>
<feBlend mode="normal" in2="BackgroundImageFix" result="effect1_dropShadow"/>
<feBlend mode="normal" in="SourceGraphic" in2="effect1_dropShadow" result="shape"/>
</filter>
<linearGradient id="paint0_linear" x1="23.885" y1="7.8999" x2="23.885" y2="42.2399" gradientUnits="userSpaceOnUse">
<stop stop-color="#E34444"/>
<stop offset="1" stop-color="#8A2828"/>
</linearGradient>
<clipPath id="clip0">
<rect width="48" height="48" fill="white"/>
</clipPath>
</defs>
</svg>
