<svg xmlns="http://www.w3.org/2000/svg" viewBox="0 0 96 96"><defs><style>.cls-1{fill:#ff3d38;}.cls-2{fill:#3c7ab2;}</style></defs><title>club-wear</title><g id="Your_Icons" data-name="Your Icons"><path class="cls-1" d="M71,83H25a2,2,0,0,1-1.74-3c2.43-4.25,2.51-24.18,1.95-38.39l-1.3,1.3a2,2,0,0,1-2.83,0l-10.5-10.5A2,2,0,0,1,11,29.29c3.21-1.92,8.65-7.91,13-12.71,2.07-2.27,4-4.41,5.59-6a2,2,0,0,1,2-.51C38.66,12.11,42.37,13,48,13s9.34-.89,16.45-2.92a2,2,0,0,1,2,.51c1.57,1.57,3.52,3.72,5.59,6,4.37,4.81,9.82,10.79,13,12.71a2,2,0,0,1,.39,3.13l-10.5,10.5a2,2,0,0,1-2.83,0l-1.3-1.3c-.59,14.53-.5,34.1,2,38.39A2,2,0,0,1,71,83ZM27.83,79H68.17C65.42,68.1,66.82,40.35,67,36.89a2,2,0,0,1,3.41-1.31l3.09,3.09,7.42-7.42c-3.5-2.8-7.91-7.64-11.87-12-1.68-1.85-3.29-3.61-4.64-5C57.78,16.12,53.79,17,48,17s-9.78-.88-16.4-2.75c-1.36,1.41-3,3.17-4.64,5-4,4.35-8.37,9.19-11.87,12l7.42,7.42,3.09-3.09A2,2,0,0,1,29,36.89C29.18,40.35,30.58,68.1,27.83,79Z"/><path class="cls-2" d="M55.83,35.94v-.11a7.74,7.74,0,0,0-5.26-7.42,7.85,7.85,0,0,0-10.39,7.42v.11h0v3.64a1,1,0,0,0,1,1h4.16l-4.7,3.23a1,1,0,0,0-.42.79V47a1,1,0,0,0,1.5.8l6.26-4.19H48l6.32,4.2a1,1,0,0,0,1.49-.8V44.56a1,1,0,0,0-.42-.79l-4.75-3.23h4.21a1,1,0,0,0,1-1V35.94Z"/></g></svg>