<svg xmlns="http://www.w3.org/2000/svg" viewBox="0 0 96 96"><defs><style>.cls-1{fill:#ff3d38;}.cls-2{fill:#3c7ab2;}</style></defs><title>club-ride</title><g id="Your_Icons" data-name="Your Icons"><path class="cls-1" d="M68.14,71.22H58.55a1.92,1.92,0,0,1-1.92-1.92c0-20.67-11.91-21.09-12.41-21.1A21.11,21.11,0,0,1,24.75,19c-.14-1.41-.78-6.25-1.36-10.56a1.92,1.92,0,0,1,2.14-2.16C30,6.82,35,7.4,36.39,7.51a21.12,21.12,0,0,1,22.76,4.67,1.92,1.92,0,0,1-2.71,2.71,17.29,17.29,0,0,0-18.63-3.82c-.67.45-2.07.32-10.28-.7,1.12,8.35,1.1,8.84,1.09,9a1.92,1.92,0,0,1-.16.69A17.27,17.27,0,0,0,44.23,44.36c.16,0,15.39.27,16.2,23h7.71a1.92,1.92,0,0,1,0,3.84Z"/><path class="cls-2" d="M77.73,78.89H18.27a1.92,1.92,0,1,1,0-3.84H77.73a1.92,1.92,0,1,1,0,3.84Z"/><circle class="cls-2" cx="30.26" cy="85.12" r="2.4"/><path class="cls-2" d="M30.26,88a2.88,2.88,0,1,1,2.88-2.88A2.88,2.88,0,0,1,30.26,88Zm0-4.8a1.92,1.92,0,1,0,1.92,1.92A1.92,1.92,0,0,0,30.26,83.2Z"/><circle class="cls-2" cx="63.82" cy="85.12" r="2.4"/><path class="cls-2" d="M63.82,88a2.88,2.88,0,1,1,2.88-2.88A2.88,2.88,0,0,1,63.82,88Zm0-4.8a1.92,1.92,0,1,0,1.92,1.92A1.92,1.92,0,0,0,63.82,83.2Z"/><path class="cls-1" d="M25,67.38a1.92,1.92,0,0,1-1.92-1.92V55.87a1.92,1.92,0,0,1,2.67-1.76c6,2.58,27.17,3.69,39.08-9.13a1.92,1.92,0,0,1,2.81,2.61C55.66,60.48,35.88,60.72,26.9,58.5v7A1.92,1.92,0,0,1,25,67.38Z"/><path class="cls-2" d="M66.22,37.65a1.92,1.92,0,0,1-.79-.17L46.25,28.85a1.92,1.92,0,0,1,.26-3.59l26.85-7.67a1.92,1.92,0,1,1,1.05,3.69L52.61,27.5,67,34a1.92,1.92,0,0,1-.79,3.67Z"/><path class="cls-2" d="M69.89,25.18a1,1,0,0,1-1-1V20.57a1,1,0,1,1,1.92,0v3.65A1,1,0,0,1,69.89,25.18Z"/><path class="cls-2" d="M66.22,25.18a1,1,0,0,1-1-1v-2.6a1,1,0,0,1,1.92,0v2.6A1,1,0,0,1,66.22,25.18Z"/></g></svg>